<?xml version="1.0" encoding="UTF-8"?>
<svg id="Layer_1" xmlns="http://www.w3.org/2000/svg" version="1.1" viewBox="0 0 128 128">
  <!-- Generator: Adobe Illustrator 29.6.0, SVG Export Plug-In . SVG Version: 2.1.1 Build 207)  -->
  <defs>
    <style>
      .st0 {
        fill: #719cbc;
      }
    </style>
  </defs>
  <path class="st0" d="M71.1,64.4c-1.2-1.7-3.2-2.6-5.3-2.6s-4.1.9-5.5,2.6c-1.5,2-2.3,4.6-2.1,7.1-.1,2.5.6,5,2.1,7.1,1.3,1.7,3.3,2.6,5.4,2.6,2.1,0,4.1-.9,5.4-2.5h0c1.5-2.1,2.2-4.6,2-7.2.2-2.5-.5-5-1.9-7.1Z"/>
  <path class="st0" d="M63.9,36.6h0c-25.2,0-45.6-7.2-45.6-16.6v87.9c0,9,20.1,16.4,44.9,16.5h.6c25.2,0,45.6-7.1,45.6-16.5V20.1c0,9.2-20.4,16.5-45.6,16.5ZM46.3,84.8c-2.5,1.7-5.4,2.5-8.4,2.3-2.6.1-5.3-.5-7.6-1.7v-6.6c2.2,1.9,4.9,3,7.8,3s2.2-.2,3.2-.8c.7-.5,1.1-1.3,1.1-2.2s-.4-1.7-1.1-2.3c-1.4-1.1-2.8-1.9-4.4-2.6-4.8-2.1-7.1-5-7.1-8.6,0-2.4,1-4.8,3-6.3,2.3-1.7,5-2.5,7.8-2.4,2.4,0,4.8.3,7.1,1.1v6.1c-2.1-1.5-4.6-2.2-7.1-2.1-1.1,0-2.1.3-3,.9-.7.4-1.1,1.3-1.1,2.1s.3,1.7.9,2.3c1.1.9,2.3,1.7,3.6,2.2h0c2.2,1,4.2,2.3,5.9,4.1,1.2,1.4,1.8,3.2,1.8,5,.3,2.4-.5,4.8-2.3,6.5ZM79.8,93.7h-8.6l-6.1-7.1c-2.5,0-5-.8-7.1-2.1s-3.8-3.1-4.9-5.3c-1.1-2.2-1.7-4.6-1.7-7.1-.1-2.8.5-5.6,1.8-8.1,1.2-2.2,3-4.1,5.2-5.3,2.4-1.3,5-1.9,7.7-1.9s4.9.7,7.1,1.9,3.9,3.1,5,5.3c1.3,2.2,2.1,4.8,2.3,7.5,0,3.2-.7,6.3-2.3,9h-.1c-1.6,2.6-4.2,4.5-7.1,5.4l8.8,7.8ZM102.8,86.3h-17.5v-29.4h6.4v24.2h11.1v5.2Z"/>
  <path class="st0" d="M64,29.2c19.3,0,35-4.7,35-10.5s-15.7-10.5-35-10.5-35,4.7-35,10.5,15.7,10.5,35,10.5Z"/>
</svg>