<?xml version="1.0" encoding="UTF-8"?>
<svg id="b" xmlns="http://www.w3.org/2000/svg" version="1.1" viewBox="0 0 915.2 722.6">
  <!-- Generator: Adobe Illustrator 29.6.0, SVG Export Plug-In . SVG Version: 2.1.1 Build 207)  -->
  <defs>
    <style>
      .st0 {
        fill: #caa228;
      }
    </style>
  </defs>
  <g id="c">
    <path class="st0" d="M483.3,245.3c-.9-1-1.8-1.9-2.8-2.9l-.2-.2c-54.7-54.7-121.7-82.4-199.2-82.4s-144,27.7-198.7,82.4C27.7,296.9,0,364,0,441.4s27.7,144,82.4,198.7c54.7,54.7,121.5,82.4,198.7,82.4s144.5-27.7,199.2-82.4l.2-.2c.9-1,1.8-1.9,2.8-2.9v71.9h72.7V203h-72.7v42.3ZM281.1,646.9c-57.4,0-105.1-19.7-145.7-60.1-40.6-40.4-60.3-88-60.3-145.4s19.7-105,60.3-145.6c40.6-40.6,88.3-60.3,145.6-60.3s105,19.7,145.6,60.3,48.8,64.7,56.5,103.8v83.7c-7.7,38.8-26.7,73.5-56.5,103.3-40.6,40.6-88.2,60.3-145.6,60.3h.1Z"/>
    <polygon class="st0" points="720.3 364.7 850.7 203 757.1 203 645.9 340.2 645.9 0 573.2 0 573.2 709 645.9 709 645.9 456.3 671.8 424.2 827.3 709 915.2 709 720.3 364.7"/>
  </g>
</svg>