<?xml version="1.0" encoding="UTF-8"?>
<svg id="b" xmlns="http://www.w3.org/2000/svg" width="789.31" height="789.3"
    viewBox="0 0 789.31 789.3">
    <defs>
        <style>
            .e {
                fill: #f0eee6;
            }

            .f {
                fill: #be5d3f;
            }
        </style>
    </defs>
    <g id="c">
        <path class="f"
            d="M586.34,0H202.96C91.05,0,0,91.05,0,202.96v383.38c0,111.91,91.05,202.96,202.96,202.96h383.38c111.92,0,202.97-91.05,202.97-202.96V202.96C789.31,91.05,698.26,0,586.34,0ZM764.31,586.34c0,98.13-79.84,177.96-177.97,177.96H202.96c-98.13,0-177.96-79.83-177.96-177.96V202.96C25,104.83,104.83,25,202.96,25h383.38c98.13,0,177.97,79.83,177.97,177.96v383.38Z" />
        <path class="e"
            d="M764.31,202.96v383.38c0,98.13-79.84,177.96-177.97,177.96H202.96c-98.13,0-177.96-79.83-177.96-177.96V202.96C25,104.83,104.83,25,202.96,25h383.38c98.13,0,177.97,79.83,177.97,177.96Z" />
        <g id="d">
            <path class="f"
                d="M411.41,319.04c-.59-.65-1.17-1.24-1.83-1.89l-.13-.13c-35.67-35.67-79.36-53.73-129.9-53.73s-93.9,18.06-129.57,53.73c-35.67,35.67-53.73,79.43-53.73,129.9s18.06,93.9,53.73,129.57c35.67,35.67,79.23,53.73,129.57,53.73s94.23-18.06,129.9-53.73l.13-.13c.59-.65,1.17-1.24,1.83-1.89v46.89h47.41v-329.9h-47.41v27.58ZM279.56,580.92c-37.43,0-68.54-12.85-95.01-39.19-26.48-26.34-39.32-57.38-39.32-94.81s12.85-68.47,39.32-94.95c26.48-26.48,57.58-39.32,94.95-39.32s68.47,12.85,94.95,39.32c26.48,26.48,31.82,42.19,36.84,67.69v54.58c-5.02,25.3-17.41,47.93-36.84,67.36-26.48,26.48-57.51,39.32-94.95,39.32h.07Z" />
            <polygon class="f"
                points="565.96 396.9 650.99 291.46 589.95 291.46 517.44 380.92 517.44 159.08 470.03 159.08 470.03 621.42 517.44 621.42 517.44 456.63 534.33 435.7 635.73 621.42 693.05 621.42 565.96 396.9" />
        </g>
    </g>
</svg>