<svg xmlns="http://www.w3.org/2000/svg" id="a" width="1227.6" height="879.1"><defs><style>.d,.e,.f,.g,.h{fill:none;stroke:#000;stroke-linecap:round;stroke-linejoin:round}.e,.f,.g,.h{stroke-width:.5px}.e{stroke-dasharray:1.9 1.9}.f{stroke-dasharray:2 2}.h{stroke-dasharray:2.1 2.1}</style></defs><g id="b"><path d="M-2 822c3-3 2-8 6-10q11-9 23-15h6l7 4q19 6 40 6l9-1 11 2 12-3 7 1c5 0 5-5 8-8l4-2c11-3 10 11 21 9l9-1c10 0 8 14 27 23 8 4 8 8 11 16 5 6 13-1 16-5q3-4 2-9l-2-7c-1-4 3-9 0-13-2-5-8-9-10-14v-11c2-4 10 2 13 3l10 7q8 2 15 7 6 7 1 16-4 8-4 17 2 4 6 6c4 2 8-3 10-6q1-3 3-7 3-2 8-2c7-1 6 9 21 12h8q15-4 31-3 6 0 12-2l2-5q3-9-2-17-6-4-13-5-6-3-12-2-6 5-8 13c-1 4-2 11-7 12q-9-2-16-8c-4-2-11-3-4-11q3-5 2-10v-16l6-2h17q10-3 14-12c3-3 8-15 13-9q2 3 3 7 3 3 4 7-1 3-3 7c1 9 12 7 18 5q6-1 10-4 7 1 10-3 4-3 9-1 6 1 11 5c5 7-1 14 10 16q8 1 15 5h7l7 2 7-1 8-3 8-10q3-5 3-10-2-13-15-15c-5 0-8 6-10 10q-2 8-11 7-8 1-16-1l-7-2q-2-3 1-6 3-6 7-8l4-1 5-5 9-5c18-12 6-11 12-23q8-9 20-14 5-1 8 1l8 2q11 2 18-3 13-12 27-22 12-8 8 7c-2 7-9 13-13 20l-3 6c-1 7 8 8 10 13l6 7q9 5 10 14l4 7c4 3 12 3 11-4q-2-5 0-8l10-9c4-3-1-6-3-7q-4-3-3-7-2-5 0-10c8-10 23-2 26-10 5-11-12-15-8-26l5-5 3-4h3c14 5 5 17 29 12l10-4 7-5 11-6 11-7 11-5c9-4 6-13 10-19q4-2 4-5c1-4-2-5 0-10 2-3 5-12 10-11q6 0 9 5c8 8 1 16 5 23 17 11 46 2 59-9 7-4 7-6 6-14q-1-5 3-11 2-2 6-2l15-3q5-2 8-6 4-2 6-6 4-11-6-18l-6-7-3-9-2-5q2-4 7-7 7-6 16-9 4 0 7 1 10-1 19 1 8 0 14-4l4-8 8-7 4-7 12-10q4-4 10-6l4-2 10-10q3-8 3-17l2-5q3-1 7-3l3-4 4-5q6-5 11-11l6-6q5-6 12-1c4 4 12 9 8 16q-3 3-3 7 4 7 12 5 5-3 6-7l4-6q9-3 17 4l2 7q1 3 3 5 4 6 10 9l17 7q5 1 11 4 7 5 5 14c-1 6 10 9 14 5q2-4 2-7l7-6q5-4 8-9 4-4 9-4 5 1 6 4c7 8 19 13 19 24q0 7 5 9 6 1 10 7 5 7 1 15 0 6 6 6l9-2 5-2q3-4 7-8l7-4q2-2 0-4l-4-2c-8-3-21-14-10-22 3-2 8-1 9-5 3-6 0-12-1-18v-12c5-8-2-10-5-17-1-10-2-8-10-11q-4-3-2-7c5-12 6-11 0-24-5-10-13 0-19 3q-8 4-13-2-12-18-21 1 0 4-2 7l-3 7v9q-3 9-13 11-7 2-14 3l-12 1-8 1q-3 4-5 5h-4c-4-4 4-8 0-11-2-2-7-2-7-6q1-9 10-15l13-10 10-5q16-3 25-16 7-8 7-18 1-5-1-10l-7-4-12-8q-6-6-13-9c-3-1-13-5-10-10 4-4 11 0 17 0l7-2q6-3 14-4 7-2 14 0 5 2 9 1 4-2 7-1 2 3 3 8l8 8c2 4 0 9 5 12q8 6 19 4 8-3 8-10c0-5-6-7-6-11q1-2 3-5l5-9v-11c1-11-10-3-15-8-4-6 4-6-5-12q-8-6-11-15-4-4-8-6c-5-6-5-12-8-18-3-10 7-15 12-22 4-9-7-14 5-21q6-4 15-6 3-4 7-6h10l9-5 8-1q6-3 10-9 7-10-2-19-7-6-10-17l-2-4-6-3q-1-4 0-7l5-14 7-9 5-4q4-6 10-12c1-3-1-8 2-11q4-2 5-5l-1-9V60q-1-6 1-11c4-5 7-12 14-13q5-1 6-5l-3-4c-2-3-13-11-11-15q4-5 8-8l2-7" class="g"/><path d="m1 803 13-8q8-6 17-9l5-1q3 0 6 2 8 7 17 10 10 6 21 4l14-1q10 1 19-4 5-3 9-8 8-4 17-3 6 5 13 9 4 2 8-2l7-8 5-2q6-2 11-6 4-3 8-3l11 2 9 2q8 5 16 6 6 0 10-5 5-3 11-2l10 1 7-1q8-4 17-4 8-2 15-1 9 0 15-6 6-10 15-18 6-5 11-2l9 7q8 7 18 9h7l15 6c6 0 7-6 11-9l13-4q6-2 11-6 3-2 4-7c3-16 17-20 29-28h7l13 2 8-1 7-6 5-2q10-5 17-12 12-11 27-18l30-15q8-3 18-2 9 1 10 10l4 9 2 2h4l6-4 1-4c2-6 9-4 14-4 8 0 7-7 14-9q5-2 10-3 6-3 8-8 2-11 8-20l6-11q1-5 6-8 10 0 19 5 8 3 9 11l2 8c-1 4-4 9 0 13 6 5 10-2 17-1q6 2 12-1 10-1 14-11c3-3 7-7 4-11q-4-2-9-4l-4-2q-6-3-12-4-6-4-13-6l-5-3c-9-8 9-16 15-18l14-8 20-8q3-1 5-5l1-6 4-3q7-4 13-9 10-11 24-13l11-2 6 2q5 1 8-1 7-4 7-12-2-5 1-8c9-5 22-1 28-10l5-5q8-1 12-7l4-12 3-10 9-12q6-4 11-9l4-4q4-4 10-8l6-7 8-3 8-4 5-1h12q5 1 8-4 2-3 5-4 5-1 8 2v2l-1 2q-6 4-1 8 3 3 7 0l15-7 8-2 4-3q9-7 19-9t18-8q4-3 7-9 3-4 3-10t-4-10q-5-2-10-2-7 0-13-4-2-4-2-7-4-3-9-4-5 1-8-3l-1-6 4-15 2-5q2-3 6-4l15-11 5-5 3-6 6-5 4-3 6-1q8 0 10 6 3 5 1 10l-5 5c-6 6 3 13 10 11l9-4 9 1q6 0 11-3 6-3 4-7c-5-10-1-11-13-17l-14-10-3-3 2-8-2-5-1-10q2-12 6-23l1-6q1-14 16-19 7-2 13-7l7-7q4-2 10-2 4 0 9-2l12-7 5-4-1-4-4-5q-2-7-8-10c-6-4-18-7-14-16l5-8 1-5q0-5 2-8l3-5 1-6 11-13 5-5c8-12-5-14 2-27l8-17 4-12q1-6-1-11-2-6 1-13 5-7 11-15" style="stroke-dasharray:2;fill:none;stroke:#000;stroke-linecap:round;stroke-linejoin:round;stroke-width:.5px"/><path d="m0 807 8-4q10-10 25-14h5l6 5 10 3q13 8 27 6c11-3 15 2 27-3l7-1q5-5 11-9 9-5 17 1c3 2 5 8 9 8 7-1 12-7 18-10l5-2q2 2 3 5c1 4 6 6 7 10 0 6-5 9-2 15q5 7 13 7c6-1 8-8 7-13 0-5-6-6-8-9-1-5 2-10-3-13l-5-3-1-2 3-3 5-5h6l11 2 16 8q7 3 12-3 3-4 7-4c5 0 16 1 15 9q-1 3-3 7v4l-1 6 1 7v2q7 3 10-5 4-4 0-9c-2-2-6-7-4-10l6-5 1-7 3-2q9-3 20-4c6 1 14 3 17-3l12-16 7-5q5-1 7 3 7 7 16 9 6 4 11 5c10-3 25 10 31 3 5-8 5-9 14-11q7-2 13-6 8-3 7-11c0-12 12-18 22-23q3-2 7-3c8-1 17 5 25 2l8-6q7-3 12-7 13-12 27-21l10-4 11-4h2v2q-4 4-9 3-5 3-7 8l-2 8q3 5 1 11-6 8-14 15-2 3-2 8 6 10 17 10 4 1 7-2c3-5-1-12 3-17q4-4 9-4c5-1 21 2 20-7l-9-11c-8-8 5-15-5-22-3-1-7-3-3-5q9-7 21-10 4-2 8 1 4 2 3 8l4 8c4 5 8 10 15 7q5-1 8-4-1-10 8-7 13 2 15-10l5-2q10 3 16-8 3-5 2-11c0-9 8-14 11-22q1-7 7-10 11 1 20 8 5 8 3 17 0 6 2 11l10 2 7-1q8 1 16-2l12-7 4-5q3-3 4-7 2-10-8-12l-19-7-10-5q-11-4-2-12 2-3 6-4 10-4 21-10l16-6q5-1 7-4l2-9 5-4 9-7c8-6 17-14 28-12q9 2 19 0c5-1 11 2 13-4q2-6 2-10 4-5 10-8 8-2 14-7 3-5 8-8 5-1 8-6 4-6 6-14 1-9 7-15l22-21 10-9 4-3 13-4q5 0 6 4l8 9q6 9 17 5c4-1 3-6 5-9q2-4 7-4l6-1 5-1q2-3 6-6 5-2 11-6 8-7 18-11c10-4 21-6 26-15 5-8 10-20 1-26l-17-4q-4-1-4-6t-8-7l-8-4c-6-3-4-10-3-15q2-6 8-5l4 1c2 2 8 3 7-2q-2-2-2-5l2-3 8-9q3-3 4-8l6-5q5-3 9-2 6 2 6 7-2 3-5 5-4 5-3 10c0 7 11 8 16 8l13-3h13q6-2 11-6 3-2 2-6l-7-14-8-6q-6-3-11-10-2-5-3-11l-4-10q0-13 9-22 3-2 1-5c-6-16 6-18 18-24q5-1 8-5 4-8 12-8h7l12-5 10-4q8-6 0-14-6-5-10-12l-12-9c-5-6-1-9 2-13l1-10 4-6q2-5 5-9 5-5 11-8 8-9 5-21l-2-10c2-9 8-17 10-26 1-5 7-8 8-13q-1-5-3-9-5-8 0-15 6-5 12-11" class="d"/><path d="m1129 639-8-1q-6 0-11 3l-6 3q-3 0-5-3-6-8-4-18l-1-12-1-8-6-9-1-5c-1-7-8-12-13-17q-5-6-1-14l3-3q0-3-3-5l-2-2h-5l-10 1q-5 1-7 6c0 6 2 9-4 13q-9 4-9 14 1 10-6 18l-8 4-4 1q-6 8 2 16l9 7 7 6c3 6-2 9-6 6l-7-1q-6 1-10 1-5-1-10-1-5 2-3 7l4 4c8 6 6 18 13 25q5 5 11 6l7 1q4 2 6 6l-5 4q-3 1-2 4 1 4 5 7 3 5 9 4c6-1 6 0 9 5q6 4 9 10v11l-2 5 1 5 1 5q3 9 9 14 5 7 13 6 7-3 13-8 9-1 18 2 11 0 20 5 4 3 6 7l5 9q1 7 7 11 8 2 15-2 6-5 3-13l-1-6-6-8q-6-7-5-16c-1-7-15-11-20-16-2-2-6-7-4-11q4-5 10-6l16-6 13-4q5-1 6-6l2-10c0-5-7-6-10-9l-4-5q-7-8-17-14l-9-10-8-8q-3-4-7-5M540 896q1-6-2-11-2-3-1-6l3-3q7-7 13-16c2-5 8-5 12-8q5-5 2-11-6-6-9-13 0-14 9-21c16-9 37 9 50-7q6-6 9-14l8-19q2-13-9-22l-5-7c-1-7 8-12 13-16q5-1 7-6c3-10 6-22 16-28q6-2 14-2c4-1 9-6 13-2q7 6 5 16-2 4-6 7-3 4 1 6l14 6q3 2 5-1c5-4 2-11-1-17l-2-5q-1-9-8-17c-2-2-2-7 2-7q10 1 18 8 1 2 4 3h3q18 1 34 5l5 4q5 3 9 2c6 0 4 8 3 12q-3 4-4 8c0 5 9 10 13 10 5 1 11-3 16-1q7 5 7 13c0 5 6 4 9 5l4 1c5 1 11-2 16-1 6-1 12 4 18 1q5-3 11-3c16-1 34-1 48 10l3 3 11 4q3 1 2 3l-2 2q-11 10-1 20 7 6 4 13l-2 1q-7 4-10 11l-2 3q-5 2-9 6-4 5-5 11c-4 11 0 22-5 32q-5 9-16 8l-7 2-5 1c-9 2-10-1-11-9q-2-2-5-2c-9 1-22 8-25-2l-3-4h-9l-3-1q-9-7-20-6c-4 0-8 6-11 4l-5-5q-3 0-7-2-2-2-3-5l-4-4q-2-2-2-5-1-9-7-17-1-2-4-3-4-1-5-3c-5-4-9-11-16-12-8-2 0 13-10 18-6 3-12 1-18 2q-6 2-8 9-4 7-12 10-8 1-12-5-1-2-4-3-5-2-11 1-5 1-8 7c-2 5 8 5 7 12q0 13-10 22-3 2-7 1-3-1-5-6-2-6-8-7l-3 3q-1 5-6 9-4 3-4 7l2 15q-2 4 1 7" class="g"/><path d="M479 897c7-1 14-8 12-16q-2-4-3-8 0-6 6-6 10 3 21 3c11-2 24-7 30-17l1-7-4-25c-1-7 6-12 11-17q5-6 5-16 1-4 3 0 0 4 3 4c5 1 8-5 12-7l3-1c5 0 8 4 13 4 10 3 20-5 24-14 2-5 0-12-6-10q-11 6-22 9-11 2-20 0-6-4-3-11c4-8 13-16 9-25q-3-2-7-2-3-3 0-5l3-2q7-2 13-1 4 1 5-3-1-12 8-21c6-6 18 6 28-4l6-7 11-8c11-7 24-10 33-20 4-4 3-12 8-15l5-4c2-3 0-8 2-11 3-4 4 2 3 5-2 9 3 19 13 20l15 1 9 1 10-4c11-7 25-10 35-19 4-5 1-12 4-17q4-6 12-3l11 5c6 3 14 0 16-7q1-3-3-7-7-21-12-44c0-6 15-11 20-14q6-2 14-1 11 0 22-5 2-2 3-7l2-3 7-4q4-3 3-10 0-4 5-5c8-1 29 6 29-7q0-16 9-30l19-18c3-4 10-9 9 0-2 14 8 16 18 18l3 2q8 12 22 15c7 0 7-8 12-11q5-3 11-1c11 4 24 15 16 28q-1 3 1 5 3 5 9 6 17 1 27-12 3-5 5-12c3-8 15-7 21-2q9 6 9 15-2 6-2 11c3 6 13 2 14 12q-1 13-7 24l-1 3v20l1 3c4 10 17 2 24-3q3-2 2-4c-2-6-7-13-2-18 7-8 19-15 28-7l8 13q7 5 13 9c6 6 12 19 8 27q-1 2 2 4c3 3 8 6 5 10q-6 12-10 25l-1 13q0 8 7 12c14 8 29 19 29 36l1 6c2 6 10 10 12 16 2 8-4 14-10 20-7 8 4 22 0 31q-6 5-14 2-6-1-10 3c-4 8-4 18-9 23-5 6-14 4-19 9-8 8-8 31 8 23q10-7 19-15c8-8 20-9 30-13q3-2 5-5 4-6 11-2M407 894c6-6 13-14 24-14l4-1c2-3-1-7 0-10 0-6 10-5 11-10 1-8-12-14-10-23l-1-5q-3-3 0-7c5-7 19 0 23-9q2-5-3-9l1-5q4-5 6-10 2-7 0-14-2-9 0-17 2-6-1-10-6-4-15-4-3-1-4-6l3-4 6 3c4 2 12 3 14-3l-2-7q-1-2 2-2c19-2 20 2 37-9q3-2 3 0-1 9-8 14l-11 7q-2 3-1 6 6 3 13 0 6-2 11 1 10 5 13 16 1 4-4 6l-8 3q-2 4-6 8-6 3-11 2-8 0-14 6c-3 4-11 11-9 17 7 11 15 22 15 36l-1 3-2 2-4-1q-3-6-7-10c-3-1-9 2-7 6q6 6 15 10c7 7 4 18-2 24q-6 5-14 5c-7 2-10 10-11 16" class="g"/><path d="M79 881q-5-10-14-19-5-1-8-7-3-12-16-19l-23-14-6-1q-4-4-1-9c2-3 8-5 10-1q4 7 11 9 9-1 16-6 6-4 11-4l35 2 6 1c3 0 9-2 11 2l2 6q2 4 3 8-1 4 2 9 10 8 22 3 8-2 14-6c5-6 2-11 13-12 14 1 24 13 30 26 2 6 10 4 14 1q15-11 13-29l3-12q-3-5-9-8l-3-4q1-3 4-1 8 1 15 5c10 5 4 18 1 26-5 12 6 17 15 23l2 2 1 6 1 3q5 4 10 0l7-5h3l9-1 5-4 13-7 5-2 7 1q5-3 10-4l4 2 14 5q4 0 5 5 4 6 11 7 1 1 3-2 2-8 0-17l-5-2-5-2q-4-4-4-9c1-6 6-13 2-19q-6-5-17-5-10-4-15-14-3-5 1-8 5 0 8 5l9 7q17 3 34-1c7 1 6 10 5 16q-1 3 2 4l12 3q8-3 16-8 9-1 13 6c3 4 2 10 5 15l4 3q0 2-4 2c-7-3-13 4-16 10q-2 6-8 4-7-2-10 3l-2 6q-5 9-7 18-2 2-5 3h-10q-5 1-8-2l-6-1q-5-3-11-6-10-2-21 1l-3 4q0 8 6 15 8 8 17 5l2-2q0-3 3-3 4-1 10 1t2 7" class="d"/><path d="M887 782c3-5 8-3 13-3q6-1 7-7v-11l-2-4-5-6-8-4q-8-2-16-1l-6 2-7 1q-3 0-4 2l-2 5q-9 0-14-5-5-4-12-6-4 0-8 3-6 3-13 1l-3 1q-7 1-13-2-9-2-10-11-1-3-3-4c-6-1-10 0-14-6q-7-8-11-17c-1-2 2-6-2-7l-9-3-4-6q-9-7-20-4-5 2-11 3c-8 5 3 16 2 23l-1 11 4 7q4 5 0 11-2 2-2 5 4 2 9 4l9 6q7 2 16 3l6 4 9 3q5 2 4 7l-1 6q2 6 2 12-2 10 10 10 6-1 10 2 3 3 2 6l3 12c3 4 3 9 8 10q7 0 13 2l13 5q7 2 13 2l4 1q5 2 11 3l12 7q7 3 15 0 7-5 9-14 0-6-2-10l2-9v-6c4-6 13-8 16-15l2-4q1-3 0-6l-5-1-8-5q-5 1-8-2M1165 886q-8-3-17-7l-3-5q-4-12-5-25l3-12q3-13-8-18c-5-3-10 1-15-1q-8-3-15-10l-6-3-2-4q1-4 5-7 2-4-1-6c-3-4-12-4-17-1q-7 10-12 21-6 8-16 11-10 10-15 24l-3 4q-5 6-9 12-6 3-12 2h-10q-14 5-26 15c-11 6-16 6-18 19M1084 673l1-8c1-8 6-15 7-23l-2-10v-9l-3-8q0-6-2-11c-6-13-9-24-22-31h-7l-9 2q-7 3-6 12l-2 10-5 7q-6 5-8 11l3 6q2 3 6 5l5 2q7 2 7 8l-2 7q-2 4-5 7-7 2-15-2c-3-2-11-2-11 3l2 9 2 7q6 7 14 8 10 3 17 13l4 7q5 3 8 6l2 8q3 4 7 6l2 4-1 6 3 2q5 1 10 5 4 6 4 15l-4 2c-6-1-10 3-4 8 5 5 7 0 10-3q4-2 7-1l15 2q5 2 6-4l3-5 6-5c4-7-1-15 3-21q4-6 11-8l22-6q11-2 14-11 1-5-2-8-11-14-26-25-4-1-7-5l-9-9q-5-4-11-4l-7 3q-4 1-6 5c-3 7 2 10-6 16q-3 3-1 8-1 3-5 3-10 4-12-6M0 811z" class="g"/><path d="m3 809 14-10 15-7q4 0 7 3 6 3 12 5 10 5 22 5l15-1 11 2q6-1 10-3l8-1q5-1 7-7 6-4 12-3c7-1 7 8 12 10q10 2 16-3l5-2 6 3q2 2 3 5-3 13 9 19 5 2 10 6 3 4 6 10c4 4 11-4 11-8l-3-6q-3-3-3-8l2-9c-1-4-6-6-7-10l-3-12c-6-11 7-9 13-5l6 4q7 5 14 6l12 3h1q5 1 4 6l-1 10q-3 7-2 13l1 2q4-1 8-3 6-2 11-3 4-5 6-10 5-5 3-12v-14q1-5 4-6c16-6 23 4 32-4l5-8 7-10c6-7 10 0 13 5q5 5 12 9c7 5 15-2 23-1 8 2 18 8 26 2q3-7 11-9l7-4q8-3 14-10c4-4 1-10 4-15q9-12 24-17l6 1 18 3q6-1 10-6l26-20c3-3 8-8 12-6q2 4 2 9 1 6-2 10c-5 7-13 13-15 22q0 5 5 7l9 8c4 2 9 10 13 6 2-4 8-8 8-13q-3-8 1-14c6-5 14-4 21-5q8-2 6-10-6-6-10-14c-1-5 4-9 4-14l-1-10c2-4 10-8 13-5s0 7 2 10l8 8q2 5 6 8 7 1 13-2 5-1 8-3 4-4 10-7 6-1 11-6l4-4 12-4q10-4 9-15-1-8 1-14 7-9 12-17 2-5 8-3 5 1 9 4 5 6 5 14-1 6 1 12c4 7 15 6 22 5q8 0 16-4 10-2 15-8l6-8q1-9 0-18c1-3 4-6 0-8-5-3-7 1-9 3-8 5-23-3-29-9-5-6 5-10 9-12q16-7 31-13 12-2 15 10l2 9c-1 3-7 5-8 8q-3 10 6 8 8-3 14-8 7-3 9-10c1-7-8-10-13-14l-5-4c-9-4-9-14-1-19l19-13q6-5 14-2c7 2 15-1 22 0q9 3 12-7l9-11q3-6 10-10l11-9q8-4 15-12 3-6 5-13 0-8 5-13 17-13 30-28 4-5 9-5 4-2 7 0l7 7c6 5 4 13 4 20q0 2 4 1c3-1 5-7 8-9 4-3 10-1 14-3l7-3 8-6 5-3 5-8c3-4 7-4 11-8q6-7 15-11 22-4 32-22c4-7 6-17 0-22q-8-3-15-8-4-5-9-9-9-2-16-8-6-6 1-11l7 1c7 1 16 4 16-7l1-11q2-5 6-9l2-1q5 1 3 5c-2 4-7 6-4 11q5 8 15 6h13l10-2q4-1 7 1t2 5c-1 10 7 7 8 14q2 7 9 10 5 4 9 0c3-4-2-9-1-14 0-7 10-10 8-18q-3-5-10-7-4-4-5-9-3-9-9-15-4-6-12-11-5-5-7-14-1-6-3-10c-2-13 11-16 12-25q-1-4-3-8l1-4q2-4 5-5l11-6q6-1 11-7l4-5q6 0 11 2l9-5c3-2 6 0 9-2q12-6 9-18l-8-8c-5-6-7-13-14-17-6-3-4-6-2-11l1-5 6-12q3-6 8-10 8-4 12-11 1-8 1-17l3-9-1-7q0-5 2-9l2-6c2-7 9-11 12-18l-2-5c-2-5-8-12-3-17q4-4 8-6l2-4" class="f"/><path d="M1054 736q3-3 7-7 4-7-5-12-7-4-15-6-5 0-8-4c-10-14 2-17-8-22l-15-9-3-6-1-10c-3-11-13-3-17-12-2-6 6-10 5-15-1-4-6-7-4-11q3-4 7-2 5 2 8 6l2 3q3 8 11 6c5-1 11-1 5-7q-5-4-12-6c-5-3-2-8 0-12l1-13q1-3 5-2 11 1 13-10 1-12 10-20 6-4 4-11c-2-6 6-8 10-10q4-2 3-6 3-5 9-5c4-1 10-3 12 2 2 4 0 8 2 13s5 9 0 14q-3 4 0 7l5 6q4 4 5 12l3 9q4 4 5 10l-1 4q2 5 1 8l-1 8q0 7 4 10c4 4 9-1 13-1l9-1 5-1q6 1 10 5l4 6 3 3 8 11 14 10 7 8q4 5 11 6c6 5 3 14 1 20s-7 5-12 6l-11 5q-8 3-13 9-3 5 1 9t10 4c4 1 11 2 10 8l-3 7 1 9q1 5 5 8 4 5 4 11 3 13-9 17-10 7-18-2l-4-10-8-12q-5-4-11-5l-15-3q-9-3-16 2-6 5-14 6l-6-2-6-3q-4-2-4-7l-4-7q-2-5-6-10zM889 607q3-5 2-9-2-4-7-5c-4 0-8 5-13 4q-4-2-6-6-3-5-10-6l-4-1c-6-1-4-7-7-10q-3-3-6-1l-5 8q1 2 3 5 1 4-1 7-4 7-3 16l-6 17q-2 11-11 11l-7-3c-12-5-25 0-28 13q1 5 6 7l4 6 1 4q6 3 10 5 3 3 1 7-6 6-12 14l-1 11q1 8 7 12l25 11 8 6c6 3 11-1 16-3l9-5q5-6 12-4c13 6 15-3 22 0 3 2 5 7 9 5q6-3 15-3l6 2q2 1 3-1v-8l1-11q0-7-4-12-3-3-8-2-3-1 1-4 6-2 10-7 2-6 2-12t-6-10l-5-4-5-2q-5-4-5-9c-2-9 4-22-6-26q-4-1-6-3z" class="g"/><path d="M75 881c-14-27-28-11-28-23 0-4 2-10-2-14q-17-14-37-22-4-2-3-8l3-3c6-6 14-13 21-7 4 5 2 14 10 9 18-9 39-4 58-2 6 0 11-4 17-2q4 2 3 8c3 7 3 15 8 20 6 5 15 2 21-1q10-6 0-11c-16-5-8-10-17-21q3-3 7-2 7 5 17 7c7-2 10 6 15 10q13 6 23 16c4 4 5 13 13 13 7 1 13-7 16-14v-12c2-12 0-15-9-23-4-4-4-13 4-10q3 4 7 6l9 3c18 5 9 22 5 35 0 7 9 16 17 11 5-2 8-9 14-10q2-1 5 1c6 4 14 9 22 6q18-6 37-4c3 0 8 3 11 0q4-11 1-26l-2-3q-6-3-13-4-10-5-18-15c-4-3 13-28 17-21-1 25 16 27 37 19h5c7 2 15-1 21 4 4 5 2 12-5 11q-5 1-3 5c3 5 7 2 10-1 9-7 21-3 27 4l3 8q5 6 13 3 9-1 14-6c2-4-1-10 2-14 3-6 10-10 10-18 0-7-5-15-4-23 3-8-8-11-13-8-6 6-11 14-20 14q-4 1-4-3 3-4 8-6c17-8 7-13 11-23 15-24 35-2 54-14 9-5 16-16 26-17l-1 1q-3-1-1-1c6-2 3 6 1 9-5 6-13 11-13 20 7 14 24 22 29 38 2 8 13 9 20 5q3-3 2-8c-2-10 16-13 11-23-3-4-13-9-7-16 9-11 26 2 27-21 1-5-7-5-9-9-3-4 3-7 6-5 15 6 34 9 46-5q5-5 11-6c9-8 22-11 30-19q2-8 5-14 4-2 7-6c3-5-3-14 4-16 17-2 5 21 13 25 20 13 46-1 66-11l4-4c2-4-1-9-1-14 4-12 22-9 32-6h2l-1-1 1 1c12-21 1-30-7-49-6-17 17-21 30-20 11 0 26 4 30-11 1-5 6-4 9-7 6-6 8-18 18-19 4 0 7 4 11 3 9-1 9-7 9-14l7-22q5-6 12-12c6-7 9-19 20-19 7-1 10 7 8 13-4 11 12 15 20 10l10-7q2-3 5-2t4 3c14 28 41 15 45 39 1 3-4 9 1 10q11 3 22-1 3-2 3-5 4-10 14-17c11-6 23 7 27 17 1 4-3 11 3 14 5 3 13 4 14 11q1 3-2 5c-5 3-2 10-3 15q-3 2-4 5v3c2 7-7 24 0 26q9 2 14-6c5-7-6-13-3-19 6-9 19-9 27-16 10-6 27-17 5-24-18-10 9-12 7-27l-1-9q2-2 3-5c2-9-5-17-9-25l-11-21q-2-5 1-10 0-13-9-23c-7-7-14 2-18 8-3 5-10 3-12-2-3-5-3-13-10-15-6 1-10 8-15 12-3 2-11 3-9-3 2-7 15-11 15-18q-3-6-1-13-1-6-6-8-17-10-31-22-3-3 1-3h1l-1 1q-6 0-1-1 17-5 34-5c7 1 14-1 20 3 4 4 10 8 5 14q-4 12 8 20l5 1 24-8c7-2 13-10 9-17q-4-4 0-10l1-13c5-18 7-17-12-27-6-4-15-6-19-13q0-4-2-9-14-6-15-20c0-18 17-12 14-29q-2-3 1-7c6-9 17-8 26-8l5-3q10-3 19-6 9-7 13-18 2-13-7-21c-5-7-5-16-10-22q-3-3-2-6 1-7 7-6 4 4 8 5c20 0 15 11 11 25-1 10 8 18 11 27 8 13 34 18 48 23" class="d"/><path d="m532 893-3-8c0-5 11-12 15-17l2-3q5-8 13-13c3-3 8-6 5-11q-6-7-10-13l2-9q2-13 15-17l5-1c21 3 32 9 46-12l6-14q2-3 3-5c2-12-7-21-16-26q-10-5-2-12 10-5 18-11l5-8 11-21 2-3q8-5 18-5l3-2 12-6c9-6 5-13 19-7l5 3c20 14 43 10 65 13q3 0 4 3c5 7-7 18 0 25 6 5 14 4 21 8q5 3 8 7l4 6q6 5 16 5h6l14 1c7-2 12-7 19-7q29 4 53 17l5 2 7 2q6 6 0 14-3 2-6 6l1 2c5 5 11 13 5 19l-6 4q-6 11-16 17-3 1-4 3-3 9-4 17-1 12 3 22 3 3 7 5 3 4 0 8c-5 2-10-3-14-3-5 0-9 4-14 4l-5-1c-6 1-12 6-18 3q-16-12-35-8c-5 1-5-5-9-6q-5 0-8-2-1-3-3-7-4-2-8-3c-11-2-10 12-19 8-5-3-11-9-15-5-7 7-2 18-4 27q-2 7-9 3c-9-2-18 2-27 2l-4 2c-4 4-10 9-15 5q-7-7-2-15 5-4 9-9c2-5-3-10-2-14q2-4 6-7c6-8 1-19-5-27q-3-3-7-1l-5 7-11 10-1 6 1 4c-1 5-7 4-10 2l-1-2-4-5q-9 0-15 7c-6 8-7 18-15 24-9 5-20-10-27 1l-1 3v18" class="f"/><path d="M1180 770q3-3 7-6c4-4-2-8-5-11q-4-1-6-4c-3-4 5-8 3-12q-2-6-9-4h-7q-5-1-9-4c-2-5 3-10 7-12l5-3 7-3c5-2 12 1 15-5l5-12q-1-10-9-15-3-1-7-3l-4-4q-3-5-10-8l-5-4-9-10-5-7q-3-10-10-16-5-1-8 1l-15 4q-10 4-12-6l2-9v-9c1-6-5-10-7-15l-1-8-4-12-2-6v-8c0-4 6-6 6-11l-5-6-3-12-2-4q1-3-2-7-4-5-10 0l-4 8q-2 3-7 3-9 2-15 8l-3 2-6 2q-5 5-4 10l3 5q2 2 1 3-2 4-5 5l-3-2q-6-6-14-4-3-1-4-6l-2-6q-4-5-11-11l-6-3h-10l-5-2q-4-4-3-10 3-5-1-9-9-4-18-3h-5c-4 1-3 7-4 10l-3 6-4 11-1 10q-4 14 10 14 7-1 13 4l8 7 4 3q4 1 8-1l9 2q13 4 16 18v4q3 6 2 11-4 7-10 8-5 0-10 2-2 4-6 8-2 3-3 5 2 6 5 10 2 9 7 14c3 2 9 0 11 5 3 10-7 14-4 20 8 11 16-2 25 7q3 3 3 7v14q2 4 5 6h6q7 1 14 3 5 2 9 6 1 2-1 5l-7 2q-2 4-3 9 1 5 4 6 6 3 8 8t3 11q-1 6 6 7l8 1 5 1q4 2 10-2l8-5 7-2 16 4 9 2 6 6 7 7 2 6q2 12 12 12 10-2 16-7 8-5 6-13z" class="g"/><path d="M1243 517q-10-4-19 0-18 6-31 19-2 2-4 6-3 2-6 6c-1 5 5 6 8 8l4 6 2 7q2 3 1 6c-1 4-7 5-10 7-6 5 4 9 5 14 1 6-11 3-1 13q7 5 3 13-4 3-7 8-4 10-3 20 2 10 12 15 20 17 24 42c1 3 6 6 7 9q4 7 9 13 0 3-3 5l-9 8q-3 6-2 14c1 7 6 13 4 21-4 15-27-4-31 8l-1 3-4 12q-2 2-1 5c3 6 15 1 20 0l9-2 3-4q7-6 18-1" class="g"/><path d="m757 786 3 7c3 6 3 14 12 16l7 1 4 2q2 2 1 5l1 9c-1 3-4 7-1 9l3 2q7 6 16 5h7l3 3q6 3 14 2h4l6 2q8 2 16 3 6 1 9 6 5 7 14 3 9 0 13-9l3-13q-1-5-1-9 1-3 3-5l1-7q0-3 3-5l7-4 4-4 4-7 4-3q5-3 3-7 1-3-2-6-4-1-7-6v-5l1-7c1-2 4-5 1-7l-11-8q-5-4-11-5-8-2-16-1l-11 2h-24q-6-2-12-2-5 2-11 3l-7-2-9 2c-3 0-8-2-7-6s4-8 0-11q-3-2-7-1l-12 1-6-4c-3-4-9-8-8-14 1-4 9-5 5-11-3-4-9-2-13-4l-5-4q-12-6-25-6l-5 2q-6-1-11 2-5 4-3 10c1 5 6 10 5 15l-2 10v4q1 4 4 8v3l-4 5q-3 4 0 8c3 4 9 2 13 4l12 6q8 2 14 6 5 5 12 8 5 4-1 9" class="d"/><path d="M925 892c-5-8-17-9-14-15q3-5 2-11l-5-10q-2-7-7-13-2-5-1-8l4-13 5-5 9-7 6-9 7-5q5-6 1-13c-1-3-5-5-3-8l7-7q3-8-4-14l-8-4q-10-4-20-9l-14-5c-13-6-27-11-41-2l-6 3c-3 1-7-2-3-5l13-6q8-4 16-3 8-1 15 1 5 4 11 7c5 1 6-4 9-5q7-4 12 2c3 3-1 5-1 8 1 5 8 4 11 2q3-2 7-3 13 2 23 12 1 5 5 7c6 3 12 2 12 11-2 9-17 11-23 15q-8 4-13 11l-4 10-4 3q-6 3-8 8l-1 8c-1 7-6 3-11 5q-2 2-3 5c-2 11 5 19 13 26q4 2 4 6c3 10-3 27 10 29q6-1 10-3l11-4 8-9c4-3 11-1 15-5 9-6-6-14-2-21q3-4 7-8l4-2 19-6c8-2 8 5 12 5l13-2c8 0 6-7 10-11l13-17q4-2 8-3c8-6-4-11-2-17q7-13-9-12h-6l-7-4c-5-2-11-6-7-11s2-12 2-18l1-11q0-7 4-11 4-1 7 3 1 8-1 14-1 6 5 9c10 3 9 14 10 23q2 5 9 5l15 2 5-1q9-6 19-8c6-2 13 2 20 4q12 5 18 15l2 9q4 11 16 7l16-1q5 0 8-7 2-5 3-11 4-16 20-22 6-4 4-11v-7c5-7 14-11 13-20q-2-7-8-10c-5-2-11-6-7-12 6-8-3-16-11-21l-4-5q-4-3-8-2v3q10 9 8 23c-3 18-26 9-37 22q-4 4 0 6h4l18-1 4-1 9-10q11-9 21 2c5 4 10 14 2 18q-7 2-14 5-3 2-1 7 4 8-5 11l-5 6-2 3c-12 4-1 20-10 26l-10 6" class="f"/><path d="m1169 801-1 1M723 889q12-8 25-3c7 2 15-4 16-11l-1-3c-3-3-5-10-3-13q6-4 12 0 10 9 19 16h11l35-6q12 5 25 9 4 3 6 7l3 1c6-1 5-8 10-10q5-3 11-3 6-1 8 5l-3 3q-4 5-4 12M1245 128q-8-9-18-11l-15-4q-4-5-10-3-7 4-9 11l1 2q7 10 2 21l-4 13-1 2q2 10 8 18 2 4 3 7c11 13 29 17 45 20M1244 61q-5 1-7 5-1 3 1 6 2 6-3 8-12 3-7 13 5 4 12 6l5 2M991 798l-2-6q-3-2-6-6-2-2-3-5-4-4-9-1-3 5-10 5-12-3-17 9c-3 6-2 14 5 16 4 1 8-2 11-1q4 0 7 3 6 2 4 7-6 6-12 2l-4-5h-6q-9 2-13 11-3 5-7 6-7 1-11 4-2 8 2 12 5 3 9 6l2 6q1 3 6 5 6 0 6-6 0-5 3-6l12-3q4 2 6-1l-1-6q-1-7 6-7 4-2 6-6 4-5 12-7h32c3 1 8 5 10 1q3-8-1-15-1-4 0-6l10-4 6-3 5-3q4-4 1-7-3-4-8-5l-11-1q-8 0-11 6c-5 11-19 8-29 11M818 653l-6-7-7-4q-4-4-8-4c-3-1-9 2-8 6q1 3 4 7 2 4 5 8c4 5 10 6 11 13q-1 6-6 10l-4 5-4 7v5c0 11 12 12 19 16q7 1 14 5 3 2 8 3l9-3q7-5 15-7c9-2 12 1 21-5q2-2 1-5l-2-5v-7q-4-12 10-11 3 1 6 1l4-4 10-12c4-5-7-7-10-10q-3-6-2-13l-2-12q0-5-4-8-5-3-9-7l-4-4-5-3q-7-3-13-8-3-4-9-6-9-1-13 7v9l-4 7v9q1 9-6 17c-2 5-3 10-11 10" class="g"/><path d="m1210-2-5 13v4l2 2 4 5c4 2 9 0 10 6l-1 8-1 3-4 1q-6 0-10 3l-5 5-4 5q-1 5 0 9c0 4-3 8-1 11l2 7c2 5-4 7-7 10q-2 3-3 7c-3 6-11 9-13 16-2 6 6 5 10 4l6-5q7-6 16-8c6-1 10 4 15 7l14 4q1 2 4 1 3 0 3-2h-2 2l-1-1-13-12-7-8q-4-8 0-15l6-7q1-5 5-10 5-4 12-5M1055 637v1" class="g"/><path d="m1053 640-5 6-2 7q-3 4-8 4h-7l-3-2q-9-4-7 6 2 8 10 10 6 3 12 8 8 6 9 10l4 4h9l2 2v9c0 4 6 4 9 7l1 6q4 6 9 11c7 9 0 18 16 22q9 4 14-5 4-3 7-7 3-3 2-8t0-10q7-10 20-12l9-3q12-1 19-8l1-6-3-4q-4-5-9-9l-4-2-2-3q-3-7-11-10-4-1-7-6-5-8-14-9l-9 3q-4 1-4 6v6l-3 9q0 7-5 10-4 5-10 5l-9-2h-7q-1-3 0-7 4-7 4-15l3-13v-10q-1-4 2-9 2-4 1-8l-4-7-1-12-10-19q-9-12-24-7c-5 1-4 5-5 9l-2 11c-1 6-8 9-9 15q-1 7 7 10l6 2 4 3 5 7" class="f"/><path d="M1055 636v1" class="g"/><path d="m1249 300-16-11q-8-5-16 2-6 8-16 14l-4 2c-7 7-4 18 4 23l14 4q4-1 9 2c8 7 10 19 17 28v5q2 4 7 9" class="d"/><path d="M1098 584v1" class="g"/><path d="m1098 587 1 7c2 5 7 8 7 14l-3 15q-2 9 7 7l10-3 9-4 9-1 8 1q5 0 6 5l-4 4q-2 3-1 7 3 6 7 12 8 9 18 16l3 2q3 5 7 5v-1l-3-4q-2-5-5-8-5-1-9-3c-3-2-4-8-1-10s8 0 10-4l2-3 4-6q1-5 3-9 4-6 4-13l-5-6c-5-6 0-14-3-21l-4-6q-3-5-10-8-5-1-8-5l-5-8q-4-5-9-5-4 1-6 4-5 2-8 6-1 4 3 8l5 3v6c0 3 5 8 2 10q-5 0-9-1-7-3-12 3 0 3 5 4 7 1 12 7 2 4-1 7-4 5-11 7l-6-1-1-3-1-10-2-6c-4-4-10-3-13-8" class="f"/><path d="M1099 589z" class="g"/><path d="M1082 742c-3 4-11 3-11 9q2 7 9 11 5 4 10 0 9-8 21-4l6 1q2 1 5-1 6 0 12 2l6 2q4 3 5 7l7 14q4 7 10 6 6 1 7-3 0-4-1-10l-3-7c-4-5-4-12-8-18q-2-2-6-4-5-5-12-8l-5-4q-3-4-2-9 1-11 13-13l15-4 14-5q7-3 6-10c2-6-3-8-6-11l-3-4q-4-6-12-11l-21-20q-4-4-10-6-8-3-15 2-7 2-9 9l-1 8q-4 4-10 3l-2-3c0-6 5-11 5-16q0-6-3-13 0-7-2-16 0-6-2-12l-8-17q-3-7-10-12l-4-4q-2-6-2-13-4-6-10-3c-3 3-1 9-2 12 0 5-8 4-11 7-6 5-2 14-5 20q-5 10-14 15-5 7 2 12l12 10q7 4 4 10-3 7-11 5l-6-3h-9q-4 1-7 4-1 2 1 4l2 4c3 6 3 13 8 18q7 5 16 6 8 4 12 13l2 7q6 3 9 7 1 3 3 7 4 2 7 7-1 5 1 10l6 4q6 2 7 8" class="d"/><path d="M650 756q-4 1-6 4l-2 3-6 12q-4 4-4 10v6l-2 3-10 11-7 11c-3 7 12 3 15 3h6q7-2 15-1 6 1 12-2c4-2 8 1 11-1q5-3 6-7 0-5 1-10l4-3q6-5 10-12c3-5-4-9-3-14l1-6-2-8 3-6c2-8-9-8-10-17 0-14-17-12-9-28q2-3 2-6-2-3-7-2-5 2-8 8-9 3-11 12l-1 12-2 3-5 2q-3 3 0 7 5 7 9 16M1152 887c-8 1-11-8-13-15q-6-14-4-30 1-3-1-7c-5-8-15-10-24-15l-8-7c-14-8-17-7-30 3l-11 6c-10 6-11 19-11 30-1 8 5 15 8 23l2 5 5 12M808 661z" class="g"/><path d="M805 660q-4-1-7-4l-2-9q-3-3-1-5 3-1 5 1l5 3q6 2 5 6-2 7 0 13t1 11l-4 5q-6 7-9 14 0 9 8 12l21 9 9 2q5 0 9-4l9-2 13-4q6-2 7-7 2-6 2-13-2-4 1-6c4-6 12-5 18-9q4-3 6-9 1-3-2-6-6-5-4-13 1-8-2-16-3-6-9-10-3-4-7-6l-6-3-9-5c-5-3-11-10-17-5-4 2-2 7-3 10q-1 4-4 8c-2 7 2 15-2 22q-5 9-14 16l-6 4-5 1" class="f"/><path d="M810 661zM1249 278c-14-8-31-2-47-5q-13-2-24-10-10-9-9-21c2-9 14 0 12-15-1-7-5-24-16-20l-6 4-5 2-22 8-6 1c-6 2-1 9-3 14-4 5-12 6-15 12q-1 15 12 20 3 1 3 3-1 7 3 13 4 3 10 2 15 2 21 15c2 8 4 15-2 22v5l2 4 1 6c1 6 3 10-2 15q-3 4-3 9-1 2 2 3t4-2q4-8 12-8 6 0 9 5 13 14 20 30l1 10c0 6 5 14 2 20q-7 2-11 7l-4 6q-4 5-9 4-3-3-4-8c-3-8-15-2-20-7-7-8-1-19 4-27l1-4q-3-7-6-14-1-12-14-10-10 0-19 5c-8 4-18 0-21-7-4-8 4-19-4-27q-6-4-12 1-4 4-8 1c-6-2-14-5-20-1q-2 2-2 4 9 9 19 13c21 9 7 18 15 27l8 5q8 5 10 13l3 3c8 1 9-14 18-13 15 5 14 24 18 36l8 22c3 7 11 11 14 19q4 5 1 10v5c3 3 11 2 12 7 3 8-15 1-17 11q-1 7 6 6l7-6 3-2 2 2q3 9 9 16 2 4 2 8l1 1 5-5q1-3 5-3l12-1c9-4 18-8 28-2" class="g"/><path d="M1249 290q-3 1-6-2c-19-14-25-10-41 6l-14 13-7 8q-7 15 2 28c6 8 18 9 26 3l4-2c10 0 14 10 14 18q0 4-3 7c-8 7 2 23 5 32q1 3 3 2c5-4 9-10 16-6" class="g"/><path d="M1243 432q-5 0-8 5-12 16-28 31c-5 5-1 9 0 14 0 10 4 21 14 23q8 2 16 2l3 2q0 1 0 0h0l-2 1q-4 0-9-2l-4 2q-10 6-20 1l-4-1q-7-1-12-6v-6q-1-10-11-15-3-3 2-3 8 0 16-1c4-3-1-8-4-9l-15-1-4-2-9-8q-5-4-8-10c-3-5 1-7 4-11 3-5-4-8-8-11l-1-1" class="f"/><path d="M1151 425z" class="g"/><path d="M1153 425c5 2 11 1 14 5 4 4 2 10 6 13q4 1 6 3 4 6 11 7 7-1 7-9c-1-2-6-3-5-6 0-8 8-12 14-15q6-2 6-8c0-5-5-9-7-15v-9l-2-6-4-8q0-2-3-5-8-5-11-14l-4-6c-5-3-17 4-17-6q3-5 3-9c0-4-5-6-5-10q2-6 3-10l-2-7-1-11q-6-11-16-19c-5-4-13 1-17-2-2-3 1-7 1-11-1-6-13-2-11-9l2-5 7-4 4-2 5 4c7 4 4 12 5 18 2 9 11 4 17 7 3 0 6 7 10 4v-4l-6-3-1-5q-2-7-8-9l-2-1c-3-4 6-9 9-11q2-1 3 1 3 13 13 22 3 2 2 5-2 9 0 19 4 6 10 1l7-10q2-6 8-9 5-2 10 0" class="f"/><path d="M1215 276zv1" class="g"/><path d="M1214 279q-7 0-11 5l-3 6c-11 12-26 19-27 36q-1 13 8 21l12 7q3 1 3 4 4 6 11 4l3-3c1-2-1-10 5-9l5 3q5 5 0 9-4 0-8 3 0 4 2 9 6 14 9 30 2 4 8 5c7 5-13 17 13 20" class="f"/><path d="M966 895q1-8 8-11 15-7 30-13l21-7 7-1 4 1c4 1 6 6 9 2 6-9 0-20 3-30 3-11 16-16 25-24l4-10q3-3 7-2l10 7 5 2 6 2q12 9 25 14 7 2 8 10v14l1 6q1 12 5 23c2 6 10 6 15 8" class="g"/><path d="M957 895q9-18 29-26 7-5 13-12 4-3 9-4l11 2c6-1 8-8 12-13q2-2 6-3c8-9 11-22 24-25 6-3 5-8 7-12l10-11 2-6c4-5 10-4 16-6h7l5-2 8-1q11 0 12 8c1 6-8 8-15 7q-3 0-4 3-4 9 3 14c5 8 15 5 23 5 12-1 26 0 34-11" class="d"/><path d="M1120 514q11 2 14-9 5-12 9-23 5-16-6-30l-8-4-5-4q-1-6 2-12 0-6-4-11-3-2-8-1h-10l-7 1-10 4q-6 3-6 11-1 6-4 10l-4 2-16 4c-28 1-11 10-30 16l-9 1q-6-1-3 4l6 2q6 4 11 5h6l6 2q16 0 28-7c4-2 3-8 7-9h6l18 3q4 1 4 4l-5 8q-8 6 1 13l8 10q3 7 8 10" class="g"/><path d="M998 591q1 10-7 16-5 2-11 5l-3 5q-8 12-20 22-5 9 4 14 6 2 10 5 1 4-2 7-3 2-8 1-8 3-13-4-7-8-15-13-5-2-10-3l-6-3-7-6-2-1q-3 3-1 5 4 3 8 5l4 4 8 5 4 4 8 4 4 4 4 7q4 3 7 6 3 10-7 10-5 1-9-2l-4-1-5 1q-3 0-5 3l2 7q0 5 2 8l3 5 4 9 6 3q5 1 8 6 1 5 4 10 3 4 8 2l13-2 7-1q4 1 6-2l1-3q1-4 1-7c-4-7-4-9 0-16 3-5 6-2 10 1q5 2 12 1 4-1 2-6-2-3-2-6 4-2 7-3c4-2 1-8-2-8-5 0-9 4-13 3l-9-7q-6-3-3-10 3-4 5-9c0-6-9-6-12-10l-2-4q-2-7-6-13-7-10 2-19 6-6 14-6 9-1 11-9-1-4-4-8" class="d"/><path d="M840 638q-5 11-15 19l-6 6-5 4-1 8q-1 6-6 11l-5 11c-1 7 9 9 13 11q9 7 20 6l10-5h4q5-1 11-3 7-1 8-6 3-5 4-9v-6c1-9 12-10 17-15q7-4 4-11c-7-12 0-10-1-21q-1-9-9-16-5-7-14-10c-5-2-17-13-21-6l-1 3-4 8c-5 5-3 11-3 17zM1242 568c-3 2-11 5-11 9q2 6 3 10 0 6-4 10-5 10 1 20l12 17" class="g"/><path d="M1244 705q-7 3-10-4l-3-12-2-4 3-4q3-3 2-8-1-6 1-10 2-5-2-8l-23-8c-3-1-9 1-10-3l2-6q7-10 9-21 2-6 7-9l2-2c1-6-3-13 1-19l5-8q-1-3-3-3-6-2-7-7c-1-7 5-17 11-20q11-5 15 6M837 780v-1" class="g"/><path d="m839 778 6-2 5-4c6-3 10-5 3-10l-8-3-10-5q-4-5-8-3c-13 6-28 2-41-1q-5-2-8-8l-2-5-7-4-5-6-9-11q-2-5-6-10-6-3-12-4l-3-4q-2-5-7-4l-11 2q-3 0-5 3 0 8 7 13 4 2 4 6l-1 2-3 5 1 3c8 7 2 14 8 21q2 5 6 8 5 2 10 2l5-2q5 0 8 2 3 1 6-2l8-5c5 0 5 7 8 10q6 4 1 10-1 4-6 7l-2 4q-1 2 1 4 2 5 3 10c4 8 20-3 19 9l-1 8c-1 8 6 17 15 17q8 0 15 2l7 5 13 1 9 5q9 6 19 8 5 2 10-1 8-7 5-18-3-9-1-18 3-5 8-6 5-3 6-7 1-5-4-5c-5 0-4 2-5 4q-1 3-4 3c-6 1-7-7-12-9q-8-4-18-4h-9q-3-1-4-3l-6-6" class="f"/><path d="M837 781v-1M883 811q-3-6-7-10-8-9-21-7l-4 1-5 5q-4 1-6-2v-6c0-6-13-11-7-17q4-3 7-7c3-5-4-7-7-8q-6-2-11-2-5 3-11 4-4 0-6-3-8-7-18-4c-5 2 0 8 0 11q0 5-2 9l-2 8-3 6q-2 4 3 6h6q6-1 11 5v6l-3 12q2 8 11 9 7 0 16-1c5 1 11 3 10-5l1-2h5l7 5 2 2c1 2-3 4-3 7l1 2q6 8 15 10l10 4q5 1 8-1 6-7 4-18l-4-9 1-5zM490 897q0-6 5-7 2 0 5 2 4 1 5-3c1-18 23-21 33-21 2 0-2 1-2 2l-5 4-17 9q-6 6 1 13" class="g"/><path d="M414 892q7-9 18-6 8 1 11-6c4-6-3-9 0-12 2-3 10 1 14-2q3-2 0-6l-7-5q-3-2-3-5l-3-5-4-6v-5c0-3-3-7 1-9 5-3 11-2 16-5q8-3 7-11-3-4-5-7 0-4 4-5 3 1 2 3c-1 8 6 12 10 18q3 6-1 10-5 2-10 2-9 2-11 9 1 3 3 5l10 4q4 1 6 3c4 8 5 20-4 23q-7 0-12 3c-9 5-14 15-24 16l-12 1M289 890q-1-5-5-8-14-9-31-9l-5-1c-4-4-2-13-8-14h-3q-8 2-14 9l-4 2c-5 0-8-6-11-10v-3 1q0 0 0 0t0 0v0q0-2 3-2 5-1 8-6l8-11q1-2 3-1l2 3q1 4 3 7c6 3 14 5 14 13l1 3q5 5 13 3 7-4 16-6l5-1 7-4q8-1 15-1c5-2 9-9 15-7l15 4 3 1q5 6 12 10 9 4 14-3c3-6 1-14 2-20q1-3-2-5-7-2-13-5c-7-7 4-12 4-19q-1-8-9-11-6-2-13-1c-3 0-8-2-7-5 2-3 6 1 8 2q11 2 23 2 3-2 8 0 3 4 0 10l-3 8q-6 5-2 10 5 5 12 2l5-7q1-3 6-3l3-1c6 0 12-6 18-7q9 0 8 7-2 10-8 18c-7 6-17 4-25 8-3 2 0 3 0 6l-1 5q-2 6-3 13l-3 4q-5 2-14-1h-8l-6-4q-12-7-26-6-6 0-12 4c-8 7 11 21 1 29" class="f"/><path d="M238 894q1-4-1-7c-2-4-8-5-10-9-1-4 4-6 7-4l24 9q8 2 10 11M84 881q-1-5-4-9l-17-16c-3-5 8-7 11-9l6-3q8-1 17-1 4-1 3-6l1-5-2-5-8-7h-4q-2-1-1-3h2c5 0 14-1 17 2 3 6 2 13 5 19 5 8 17 11 26 9l9-2 5-1q4 1 7 1c5-2 0-13 5-16l4-2c9-2 15 5 21 11l2 5c1 6 6 9 7 14q0 3-1 6l2 3 6 3c4 2 2 7 3 11l3 6 4 7M1169 693q0-7-6-9-7 0-10-4l-1-6q-4-6-11-9-5-3-7-8l-6-4h-7l-5 4-2 8-2 7q1 6-3 10l-13 12-3 2-6-2h-9q-5 2-7 6 1 3 5 5 6 2 9 8 2 2 3 5l1 6 3 6q0 6 3 13 6 8 15 3c5-4 15-10 13-18q-3-3-2-7 2-8 9-12l8-3 9-2 3-2 8-1q8 0 12-8M1244 721q-19-15-21-40l3-4q0-6 2-11 3-5-1-8l-6-1-2-2q-9-4-19-5l-4-2c-5-3-2-11 1-15q7-3 10-10-1-4-1-9 1-4 4-5l1-3 5-20 1-6q-1-3-3-4-3-4-2-8c1-7 9-12 4-18q-5-1-8-6l2-2c8-5 25 6 29 0 2-4-2-9-3-14l-1-4q4-3 8 0" class="g"/><path d="M603 891q-1-5-3-8l-3-12c0-4-3-10-1-14 4-2 8 3 12 2q3-4 3-9l-1-2q-5-1-9-3v-6q3-3 7-4 3 4 4 9 4 5 11 8 5 5 9 9h3q9-5 8-15c-2-7-10-11-7-19q1-3 6-5c9-2 19-6 27 0q1 3 4 3 5-1 6-5l9-16v-5q2-2 4-1 3 2 2 5 2 8 11 6c5 0 11-4 10-9q-2-7-11-10-5-2-2-6 4 1 7-2 1-2-2-4h-8q-3-2-4-5l1-5q5-4 7-10 0-3-2-5l-2-3-1-4q-2-6-6-9l-5-8-1-6q0-3-3-4-3 0-5-3c-7-6 3-14 3-21 0-5-6-7-10-6l-10 1-4 3-10 13c-2 5 0 15-4 18q-6 1-11 4-9 4-3 12l6 6q2 0 2 3v7c2 10-3 19-7 27q-1 5-3 10-7 12-21 18-2 1-5-1l-11-2-13-1q-8-1-12 6-3 9-2 17c2 9 15 12 13 21-3 8-16 4-21 10l-2 6q-4 7-9 12-4 5 2 9l7 4q8 2 14 0l4 1" class="f"/><path d="m776 641-15 9-8 6-6 1q-7 0-11 5l-3 3q-2 3-7 2-4 1-4 3 0 4 3 7 5 2 10 2l12 1q9 2 16-1 6-2 11-3 5 0 7 3 3 2 2 6l-2 6v7l-5 7c0 5 6 7 9 8 2 1 6 2 4 0l-2-6v-8c-1-9-1-11 6-17 4-4 8-9 0-10q-6-1-8-8 1-4-2-7-5-2-10 1-1 2-3 1-5-1-5-5c1-5 7-3 10-6q3-3 2-7M1249 296l-7-2q-6-5-13-9c-7-3-13 3-18 8q-12 9-20 21c-3 6 2 14 7 18q12 4 23 7c7 3 8 10 11 16q4 7 6 15l1 4c3 5-1 15 9 12M1248 229c-6-4-9-14-18-13q-7 3-13 2l-8-5-5-8c-6-8-19-7-25 1q-2 4 0 7l10 18q9 5 12 14 1 3-2 4l-7 9c-5 4 2 7 5 9 16 9 35 1 52 8M1131 682v-1" class="g"/><path d="m1131 679 1-2 3-5-1-5-1-5q-4-8-12-2l-2 6q-3 7-3 13l-3 4q-8 5-12 12l-1 6q0 3-4 5l-5 4 2 5 5 12q1 3-1 5-2 8 6 12c4 2 15-7 17-11q1-5-2-8l-5-7q-2-6 4-8l4-3 12-4 5-1 15-3 7-1q5-3 3-8-1-2-6-3l-5-3-6-2-8 6q-6 0-7-3v-1" class="f"/><path d="M1130 683v-1M1213-2l1 4c3 3 10 0 13 4v5l-3 4v4c3 8 12 20 3 26q-4 1-9 1-8 0-14 6l-3 5q-3 8-1 16 5 12-7 20l-5 9q-2 1-2 3c-3 8 9-1 11-3 5-2 12 0 15-3 4-4 1-10 2-14q3-11 2-20v-3q1-3 4-2 13-1 22-10l3-9M1248 223q-4-6-12-9c-8-4-17 6-25-3q-2-4-6-8c-5-5-13-4-20-5l-4-3v-4l2-6q4-10-1-18-9-12-7-25v-4l2-2c7-3 14 3 10 10q-5 9 0 17l10 23q3 8 11 9l10 5q14 7 29 10M620 778l-13 10q-6 5-12 4l-4 1q-4 1-8 1-4-2-7-2c-2 0-6 3-4 4l7 1 7 4h6c9-1 13-2 20-8q10-7 9-18l1-9q-2-6-9-7h-6q-6 1-10 3c-5 2-9 6-14 3l-4-2q-4-2-6-6 2-10 8-18l1-1 5-1q7 0 7-5 1-6-1-12v-5l3-4c5-6 6-7 14-5q7 2 12 0l4-4 6-5q2-5 7-8 3-2 3 2l-2 6-5 6-5 12q-2 6-7 7l-8 5-5 1c-4 0-6 6-6 10l1 6q-1 3-6 1c-4 0-12 1-11 7 2 5 14 1 18 0q7-3 15 2 5 3 6 8 4 9-5 14M1246 135c-8-6-14-16-25-17q-9 0-13 8" class="g"/><path d="M1208 127q4 5-1 11-5 4-8 9-3 8-5 15l1 3 7 12q2 5 6 10 5 5 12 6c9 3 18 9 27 8M1139 472q0-4-1-9-1-8-9-11l-4-2q-6-5-5-13 2-11-10-12h-9q-3 3-7 2-8-1-10 8-3 7 5 13l5 5 5 7c3 5 18 4 17 9q-1 6-6 9c-15 14-3 13 4 25q2 6 8 7 7 0 9-8l6-16z" class="g"/><path d="M65 878c-6-6-16-4-24-5l-4-2q-3-3-1-10 2-9-6-19-7-12-22-11c-6 1-5 7-6 12l-5 5c-3 3 5 7 7 10l1 3q6 10 14 17" class="f"/><path d="m19 879 1 1M896 691q4-2 7-7l7-7q12-7 4-18-6-4-11-7-2-2-3-6l-1-22c-1-7-9-6-13-9l-2-4q-5-6-13-8-5-2-8-7-4-4-12-6-9-2-14 6-2 7-1 13l-2 4q-3 5-3 11 0 8-7 15-1 3-5 4-3 1-6-1l-7-4q-4-4-10-3c-6 0-13 6-11 13l6 6q2 4 5 8c3 3 9 4 10 9q0 5-3 7l-9 11q-3 5-2 9-1 10 8 13l19 8q6 1 11 6 3 3 7 2l19-10q5-4 11-2l8 1 6-3 5-2 2-4 2-6-1-8-1-2c0-2-4-3-3-5l1-1q4 0 5 4z" class="g"/><path d="M631 891q0-4 3-6 3-1 6 1l7 1c20 1 13-26 28-28 5-1 7 5 7 9q1 8-3 16c-3 6 2 9 6 10" class="f"/><path d="M1247 391q-9 5-15-4l-1-3q-3-2-4-4c-1-4 3-6 4-10l1-4c1-11-6-24-17-26-7-1-13 4-20 4q-9-1-11-9-3-21 14-34l17-15 3-2c8-4 17 1 24 6q3 3 7 3M60 880l-24-4-6-1q-5-3-3-8c2-3 7-6 6-10l-7-14-3-4q-5-5-12-2-2 0-2 3c0 7-4 17 2 23l2 1q11 5 14 16" class="g"/><path d="M1243 520q-8-5-14 1l-6 4-2 2 1 5-2 3c-5 3-10-3-15-2-7 3-4 11-7 16q-2 5 2 8c3 1 6-3 9-4l2 2q0 4-2 7l-3 14c-1 4 3 5 4 8v6l-5 5-1 7q-5 5-5 11 3 4 4 9-1 3-5 4l-5 3-2 4-2 8q-1 8 6 10 9 1 16 7l3 4q4 1 6 5v7q-2 4-2 10 2 4 3 9c1 13 11 22 18 32q4 5 1 10-5 2-9 6-6 6-6 13c2 9 11 8 18 5" class="d"/><path d="M1043 894c0-6 3-12-2-16l-2-1q-5 0-9-5l-4-1-24 7-4 2q-8 5-19 6-8 2-10 9M950 575h-8l-10 1q-10-2-14 7l-6 9-2 4q0 3 1 5l4 15v15l5 5q16 8 31-2l7-6 2-3q8-5 12-14 1-5 7-8l8-1c5-2 3-10-1-13q-8-1-15-1-6-2-10-7-5-6-11-7M1106 831q-5-1-8-6-1-5-3-7c-6-5-12 0-18 3-10 8-13 3-16 18l-1 7-1 5c-1 10 6 14 13 19q5 2 9 2l6 3q11 7 24 9 4 2 9 1l7-5q4-1 5-3l1-3v-8q-1-5-4-8l-12-7q-4-6 1-12c4-5-3-9-8-9zM1246 140q-7-4-12-11-4-5-10-7M1223 122c-8 2-6 13-10 18l-3 2q-11 6-12 17 1 13 10 23l13 10 4 2q11 4 22 4M1175 885q-3-8-11-10-7-2-13-8l-3 2c-1 7 9 9 15 12l5 4M944 484h2" class="g"/><path d="M947 484q9-3 15 1 5 5 11 9l8 7 6 1q6 1 7 4-1 5 2 9l8 2q2 0 3 3-1 8 0 15 3 7 11 6l5-3 8-5 4-2 4-1q11-3 18-10l11-7 4-10q6-7 14-3 4 4 7 10 0 6-1 11t-3 2l-3-5c-5-8-19-6-21 3q-3 8-11 7-6 1-9 4l-7 5c-5 2-10 2-11 9q1 2-2 4-4 4-10 0-3-4-7-9l-7-6-4-5q-3-2-7-2c-3 1-9 2-9-4q0-4 2-8l4-3 1-1q-1-4-5-5c-8-1-16 2-23-2-5-2-3-4-4-9q-2-4-6-2l-6 5q-6-2-7-8v-9q-3-3 0-6l4 2 2 5" class="f"/><path d="M943 484h1M1246 435q-7 0-10 7-6 12-17 21l-3 4q-2 3-6 4l-1 5q0 8 5 15l3 6q5 8 14 4 5-5 13-5M1248 236l-12-3c-6-1-10 7-16 3q-3-3-5-8-6-5-9 3c-2 6 6 9 9 14 2 4-2 6-4 9M1211 254c8 12 24 13 38 13M882 637q1-7-5-11-7-6-15-8-4-1-6 3l-4 7c-2 9 6 15-3 22q-6 5-9 13l-7 10c-2 4-10 4-6 10q5 5 11 3h5l6 2q5 3 8-1l-1-2q0-6 4-9 7-3 12-7 3-3 1-8c-2-7-4-12 3-17q5-3 6-7" class="g"/><path d="M1245 438c-8 2-10 13-15 19q-10 9-16 19v4l6 15 4 4 3-1c5-3 10-9 17-6" class="d"/><path d="M1088 820q-7 2-12 9l-4 4-3 6q-4 7-5 16 3 9 14 13 5 0 9 4c8 6 24 12 34 8 6-3 12-10 8-17q-2-4-8-5l-9-6q-3-5-1-9v-5l-7-4q-5-1-9-6-3-5-7-7M673 852q-5-6-12-4l-5 5-8 8-2 7q-3 9-14 7c-5-1-11-4-15-1q-2 3-2 7-1 5 0 10 2 3 6 4h4c6-1-4-11 3-14 4-2 10 1 15 1q9 3 13-5 3-4 4-8-3-5-1-8c3-5 10-5 14-9" class="g"/><path d="m983 805-7-5-5-1q-3-3-4-7c-5-6-15-6-18 2q-3 5-1 10c4 5 12-1 16-3h3q2 2 2 5c1 5 7 4 9 6 3 4-1 9 6 9l19-2h9l9-3 2-3c-1-5-7-6-10-8q-2-4-8-6l-6 2q-7 3-16 4" class="d"/><path d="M1248 233q-10-5-19-11h-7c-11 4-14-11-20-16q-9-7-18 0l-2 4q2 16 15 22 3 0 3 2l7 10c5 6-6 9-9 14M1197 258l2 3h8c12 9 28 7 42 9" class="g"/><path d="m1180 423 6-1 10-2q7-6 3-15-3-5-3-10l-2-7-1-2q-3-6-6-11l-9-10c-2-2-9-6-12-4q-6 7-5 15l1 7c2 5 10 6 4 12l-9 12c-2 4-1 12 3 14h6z" class="d"/><path d="M622 827q-2-3-5-3l-3-2q-8-3-15-6-3-5-10-6-9-2-16 2c-5 4-9 13-7 18q0 2 2 3 5 6 13 10c5 2 8-3 11-6l8-6 6-1 6 1q4 4 3 8 2 6 7 8l4 1q2-2 3-6 1-3 3-5 1-5-3-10zM132 885l-10-5q-5-2-9-5-3-4-5-9-2-4-5-6c-5-3-11-9-17-8-5 0-13 4-7 10l14 20M530 823l-2-9-1-3q-1-12-12-14l-11-3q-8-3-14 1c-7 9-2 22 5 29l2 3q2 6 1 12c1 5 4 12 10 13 12 1 22 0 20-15-2-8-2-7 2-14" class="g"/><path d="m202 892-8-11-12-10q-4-4-3-10 0-3-3-5l-5-1q-15-7-29 3h-4q-12-3-24-10c-4-2-9 0-6 5q3 9 9 17 9 4 17 7c6 2 10 10 18 10" class="d"/><path d="M72 881q-7-9-16-12-6 2-11 0-4-2-4-7 1-13-9-23-3-4-8-6-4-4-10-6-12-4-17 8M489 848z" class="g"/><path d="M489 845q-1-18-10-34l-6-8c-1-6 7-13 11-16q3-3 7-3h19q3-3 5-4l5-1 6-2q4 1 7 7 5 4 13 2c5 0 2 4 2 7v7q-5 5-8 10c-3 5 0 11 0 17v6q0 6 2 11 0 6-4 11-3 6-11 7-8 5-18 4-4 0-8-4-5-2-12-2c-5-2-2-6-1-10" class="f"/><path d="M489 849zM1180 885q-1-9-7-15l-1-2q0 0 0 0v1-1q5-3 10 0c3 2 1 7 4 9q5 5 12 3 7 0 12 4M1038 616q4 5 10 5 3 4 7 4 6-1 11-4 7 0 10-5c7-10 0-20-7-28q-3-5-8-7-7-3-13 1l-2 4q-1 9-3 17l-1 4-1 5zM1036 666q4 8 10 12l10 8 4 2c8 0 12-10 16-17q2-6 0-14l2-6q2-6 0-12-1-4-4-8c-3-1-10 4-12 7l-2 3-6 6-3 3-1 7q-2 4-5 4c-3 2-7 1-9 5M1023 431v1" class="g"/><path d="m1024 434 4 5 2 6q4 3 7 2h12c9-1 25-4 24-16l-1-8-4-5-9-5q-3-3-7-2-10 0-16 8-7 4-12 10" class="f"/><path d="M1024 430zM991 545v-1" class="g"/><path d="M990 542q-4-3-9-1-9 4-10-5-3-12-16-10-5 0-5 6c0 6-5 9-7 15q0 6 6 8l15 1c3 2 5 5 9 1l14-9 3-2" class="f"/><path d="M966 517q-1-3-6-3l-6 1q-2 2-3 6-5 4-6 9l-1 6-3 7q-4 7 0 13 5 3 10 2 6 1 10 3 4 6 12 5l6-4 5-2 6-6c4-2 10 3 14 1 3-2 1-8-1-10l-7-4q-3-3-6-4h-14q-3-2-4-6l-6-7q-4-3 0-7" class="d"/><path d="M1049 380q-11 3-20 4c-10 2-12-13-19-4q-4 5-5 10l-2 6c-1 4 5 9 9 11l5-2q10-4 21-6c9-2 24-10 11-19M1145 407q7-5 4-12 2-6 3-10l-1-6q-1-4-4-6-5-4-11-2-9 2-17 6l-11 1-7-1-4-4-4-6 1-10c0-8-9-7-15-8q-6-1-12-4c-1-1-5-1-4 2l12 8 8 4q7 5 6 15l1 4 6 6q10 5 19 0c4-3 12-4 16-2q4 2 6 5 4 1 6 4 0 2-2 6 0 5 4 10" class="g"/><path d="M1216 884q-7-7-18-9l-3-2c-4-3-2-9-7-11q-3-3-8-2-7 1-10-4c-2-4-1-10-7-8l-17 7q-1 1-2-1l-2-8q0-5 5-5l8 1q12-1 24-5l3-3q12-13 29-18 4-2 8-5l8-1c4-2 6-7 10-6h0q0 0 0 0-1-1 0 0c3 2-10 9-12 11l-1 5-1 6q-3 8-1 15 4 6 12 5" class="d"/><path d="M1221 615c-9 2-6 11-8 18-1 3-5 5-3 8q3 4 7 4l18 5q4 2 7 0 5-6 0-13-5-3-7-9-3-5-9-11zM1049 465l4-1q5 0 9-2l4-2 7-1q3-1 2-5-3-2-7 0l-5 2c-5 1-14-3-17 3q0 4-3 6-4 1-7 6-2 3 1 5 6 4 13 1 2-1 3-4zM1244 459c-7-1-17 4-19 13l-2 4M1223 476c1 8 15 7 21 9M728 596c1 6 10 10 16 10q6-3 10-8 6-2 11-1 6-1 9-6 1-3-1-6-2-8-9-8-8 2-15 8l-12 4q-7 2-9 7M307 800z" class="g"/><path d="m307 797-4-3q-1-3-3-7-6-4-12-1-2 2-3 7l-1 11 1 3q-1 9 6 14 4 5 8 2 2-2 3-6l5-14" class="f"/><path d="m307 802 1-1M824 618q3-1 2-4v-8q2-4 3-8v-4q1-4-2-6l-4-6-5-5c-4-5-8 0-7 4q-1 8 5 14l1 2v5c-1 6 2 7 5 11z" class="g"/><path d="M960 571q-4-6-11-7h-8q-7-3-9-10v-14q1-5 5-11l2-6q2-9-7-10l-6-7-7-7q-4-4-6 1l1 4q1 5-2 9l-1 5c-2 9-5 4-11 3-1 0-5 1-3 3 8 4 7 6 7 14 1 6-6 8-11 10-2 0-6 3-4 6q2 2 6 4l1 9q2 7-3 10-3 2-8 1-3-1-5-3-8-2-3-10 2-6-3-11-4-6-4-13 0-4-4-1v5q-2 5-8 7h-6q-5 0-8 2l-3 3 4 7 5 8q2 3 5 4 6 0 11 2l2 5 3 5c4 5 7-2 10-4q5-1 9 3c7 7 3 18 12 24 4 3 4-1 3-4l-4-9q-5-5 0-9 6-2 9-7c1-6-6-12 2-16q3-1 8 1 10 5 21 2l9-1 7 1" class="d"/><path d="M1242 331v-6q-3-11-10-20-3-6-8-4c-6 2-15 5-16 13q-2 4 0 7 6 3 13 2 8 3 16 9" class="f"/><path d="M715 854q0 12 10 16l6 6q10 2 15-7 3-8-1-18 0-4-3-6c-8-6-24 0-27 9M1053 419q-3-3-7-1-2 3-3 5-1 4-5 7-2 1-3 3 0 6 5 8l8-2 8 1q6-1 9-7v-6q-3-4-4 0-1 5-6 5-5-1-7-6c-2-4 2-5 4-7M1107 430h-2" class="g"/><path d="m1103 431-4 1-5-1c-12 1-7 13-1 17l11 8q5 1 9-1c4-1 5-8 1-9h-3q-4 0-5-5l2-5 3-3-2-2" class="f"/><path d="M1108 431h-1M1084 311q1-2 4-4v-3q-3-9 2-17c5-4 11 0 15 3l6 4q5 4 4 10c-1 7-9 11-16 7l-6-2-3 1-2 3q-3 2-5-1M1123 506c6 0 5-8 7-12 2-6 5-12 1-18q-2-4-5-4-6 0-9 6l-7 5q-5 4-1 10zM1113 869h1" class="g"/><path d="m1115 867-2-2-6-7q-6-6-10-13c-2-8-11-8-13-1-2 6 5 12 9 15q5 3 10 7l8 2" class="f"/><path d="M1112 869zM870 664l-2-5-5-6q-5-4-12 0-3 4-4 9l-6 6c-3 6 3 12 10 10q5-3 9-7l4-1q5-2 6-5M1025 502q-6-11-18-15-5-1-6 2-5 6-5 11 0 2 2 3l6 1q6 1 10 5c5 3 9-3 11-7M15 880c-2-6-9-6-14-9-4-2 1-9-3-11l-4-4M735 873q6 0 7-6v-7l-1-9q-4-5-11-4-5 1-9 4-4 7 2 13l6 4q2 4 5 5" class="g"/><path d="m1230 855-14-1h-8l-4 4q-3 9 2 14l16 11" class="h"/><path d="m1239 158-9 3-7 4-2 1c-2 3 2 10 6 11q10 2 18-5l2-3q-1-7-8-11M977 712l-16 7q-2 4 0 9 5 7 14 3 5-3 6-10 3-6-4-9M1098 582q-2-3-1-8v-14c3-10 9-11 5-23q-2-7-9-10l-1 1q-1 7 3 14 2 1 3 4c2 5-4 9-6 13-3 5 1 11 4 15M1188 817q-1-5-7-5-5-1-8 1-7 7-6 16 2 3 7 3l10-7zM1105 740q8-2 11-7l1-4c-2-4-8-5-10-8q-1-4-6-4l-1 2 3 6c3 6-7 11 2 15M999 740q0 4 3 6 8 3 14-3l1-4-2-10q-4-7-10 0-4 4-6 10M10 880q-4-3-9-2l-9-6M741 816z" class="g"/><path d="m738 817-5 2q-6 3-5 9l4 4q4 3 10 3 5-3 7-9 3-7-5-9" class="f"/><path d="M743 816h-1M1044 671q2 5 7 6 9 4 17-1l4-6 1-5c0-3-4-6-3-9q1-4 4-7 3-8-4-11c-3 0-5 5-6 7l-6 6-5 8q-3 6-9 11M1231 873l-4-8-1-2c-3-4-16-7-18-1q-2 3 1 6 4 4 9 6c3 2 7 6 12 4M671 672c8 4 9 1 12-5q5-5 5-11-2-4-5-2-4 5-3 9c1 5-6 5-8 8M646 787q0 4 2 7 6 8 14 6 5-3 3-8-3-6-9-10-7-4-10 5M877 541l2 2 14 1c11 0 8-18-2-12q-9 2-14 8M780 637l6-4q5-3 12-4c3-2-6-8-9-9q-6-2-8 4l-1 10zM696 893l-1-3q-3-3-2-7v-4l2-8q4-5-2-9l-12-9h-4l1 1 4 4q2 4 3 10l1 9-2 6c-1 6 6 9 11 10M715 612q-2 2-2 5 4 14 19 19c6 2 15-1 17-7q0-4-4-5-4-4-10-5-7 0-12-3zM1223 569l13-5 3-2v-4c0-4-5-9-9-5q-6 5-9 11-1 3 2 5M737 773q-2-4-7-5l-9-3q-4-1-7 1-2 4 2 6c4 3 9 0 13 0 3 0 5 3 8 1M1031 392q-5-3-12-4-3-2-6-1-3 2-2 5 0 3 4 4 11 4 18-4 4-6 11-5l4 1q1 2-1 3-7 6-14 2" class="g"/><path d="M818 801q6-1 11-4 5-5-2-8c-5-3-13 0-14 4q0 6 5 7" class="d"/><path d="M675 756q1-3-2-7-1-4-6-5-6-1-7 6l5 7 2 2q6 3 8-3M1107 705q-2-1-3-5 0-10 11-13 7 0 12 3 9 4 2 10l-12 4q-4 2-10 1M743 744h1" class="g"/><path d="m746 743 6-3 1-1 1-4q1-3-2-4h-9q-4 1-4 6l2 6" class="h"/><path d="M742 744zM1152 858l2 5q6 5 11 2c1-2 1-9-2-11q-7-2-11 4M1238 812l-3 4q-2 2-6 4l-2 7-1 4q-2 6 4 8l5 1M581 833l4-2q5-4 2-9-4-5-9-3-6 4-2 10zM1124 697c-2-5-9-8-13-4q-4 5 1 8 8 1 12-4M872 828q-2 0-3 2l-1 7 3 2 4 1 2-2q3-8-4-10M1123 783q-3-4-9-4-4 1-5 5 1 3 3 2 7 2 11-2M654 681c5 3 13 1 14-4q1-3-2-3-7 1-12 7M509 823q2-2 1-5c1-4 6-11-1-12q-4-1-9 2c-4 4 5 12 9 15M564 866q-7 6-1 11 4 2 7-2l-1-3q-1-3-5-6M965 748q5 6 12 2 2-1 2-3l-2-2q-7-1-12 3M1204 197c11 10 7 19 25 13q1-2-1-2l-9-3q-8-5-17-9M295 817l2-2q3-6 2-12-2-1-3-4l-2-5q-3-2-5 2-1 3 1 8l1 5q1 5 4 8M804 721l9 9q1 4 6 6 4 2 9-1l1-1-1-1-20-12zM1178 817c-4-1-7 5-4 8 3 2 7-2 8-4q1-3-3-4M1201 195l-7-6-4-6c-2-2-3 3-4 5-3 8 9 8 14 8zM551 852c5-2 13-6 8-12l-7-8h-2l-1 4 2 10zM757 587q6 4 10-1 1-2-2-4c-2-2-7 2-8 4M439 796q4-2 4-5 2-4-3-4l-5 4q-1 3 3 5M229 828q4-2 5-6c1-3 4-12 1-14l-1 1-4 7q-2 6-1 12M549 828q-4-5-4-10l1-3 7-6h1l1 1-2 4q-3 5-3 11zM700 882l1 2q4 2 6 0t-2-5q-3-1-5 3M1016 522c-4 0-4 6 0 7q2 1 3-2t-3-5M934 503c1-3-4-8-6-4-1 3 5 8 6 4M1227 169q1 3 4 3l4-1-2-4q-3-1-6 2M1159 608q-7-4-8 2 1 3 3 2zM719 665q-2-3-7-3l-1 1c0 3 7 3 8 2M1055 604q2 5 6 1c2-1 6-5 3-7-4-3-7 3-9 6M1234 538l-2-4q-3-2-4 1l1 3q3 3 5 0M1204 458c-2-1-8-1-7 2l1 1q4 1 6-2M579 863v-6l-2-1q-2 1-1 3zM996 586q-5-9-15-7l-1 1h1l4 2zM1125 610q4-1 2-4l-3-2-2 3q1 2 3 3M852 668l-4 1q-2 2 1 4l3-2zM969 830q-2-3-5-1l-1 1 2 2q3 0 3-2M1140 754l-2-1q-2-2 1-5 4 1 4 5zM1080 628c4 0 4-4 0-4l-1 1q-2 1 1 3M731 627q3 5 8 1l-1-1-1-2q-4-2-6 1M985 487q1 2 3 2l3-3q-2-2-6 1M247 833l1-4M723 820l4-3-1-1-1-1-3 2zM1011 591l2-6M1193 658h5M432 817z" class="g"/><path d="M435 816q4 1 6-1c2-3-4-5-6-6h-3q-5 1-5 6l3 1" class="e"/><path d="M431 816zM885 799q4-4 0-9-1-5-3-8-3-2-8-2l-10-4h-2q-7 1-11 4l-2 4q3 4 7 3 6-1 12 1h7c5 1 4 9 9 11M128 871l4-1q5-2 3-7c-2-5-12-8-17-5q-2 4 0 7 2 4 6 5zM162 876c5-1 5-10 2-13-5-6-13 3-12 8q3 5 10 5M937 886l9-2q7-3 5-10-3-3-3-7-2-10 7-9 3-1 5 2l3 6 4 3q8 1 8-7l-5-5v-6l1-6 5-4q2-2 3-6 4-3 10-4 5-3 9-2h11l9 1 6 2q7 2 10-3 4-9 0-17v-4l2-3 8-3q4-3 8-2 6 2 4-2l-1-12q2-5-4-5-9-1-16-5l-4-1q-3-1-8 1l-6 1v8c0 4-6 6-9 7q-7 3-12-1-4-2-3-6l3-6q3-6 12-7l4-1 5-5q11-4 12-14-1-8-3-15c0-4 6-8 2-11l-3-2-13-7-3-1-10-2q-4-2-8 1-1 5 3 9c3 4-1 8-1 12q-1 6-6 9-4 4-2 9l5 17q1 9-6 6-9-6-17 0-3 4-8 4t-9 2q-14 10-11 27-1 4-5 4c-3 5-2 13-7 15l-10 1q-3 1-4 5-1 6 2 13 4 4 9 7 3 4 5 9 3 4 8 6c4 2 0 4-1 6q-3 3-3 5-1 5 4 5M25 861q0 0 0 0" class="g"/><path d="M27 860c2-3-4-7-8-8q-4 0-5 4 3 4 8 5" class="h"/><path d="M23 861h1" class="g"/><path d="m583 837 8-6q4-4 0-10l-3-5q-6-4-12 0c-5 3-9 11-4 16q5 5 11 5" class="d"/><path d="m1208 449 5-5 8-3q5 0 7-5 3-9-7-8-6 0-13 2l-6 4q-3 0-3 3c1 4 4 11 8 12M1099 446l2-3-2-5-3-1-3-1-2 4q2 6 8 6M1179 420q8 0 14-2 7-3 3-10l-4-9c-2-4-6-3-10-5q-6-4-11 2c-4 5-15 14-8 20q4 3 8 2 5 0 8 1" class="g"/><path d="m1173 417 6-1h5l7 1q6-4 1-9l-5-6-8-4-4 1q-5 4-9 9-2 8 7 9M283 893c0-7-8-9-13-13q-4-3-5 1 1 3 4 4l4 8" class="g"/><path d="M1176 413q8-1 3-6l-3-2c-2 1-7 3-5 7zM224 892c2-1 8 0 6-4q-1-4-6-5l-4-5-4-2q-2 1-1 3l2 4 2 6q1 3 5 3M1042 444c8-2 21 1 26-7 3-4 2-12-3-15q-7-8-17-8c-7 1-7 5-11 10l-7 4q-1 5 2 10 2 7 9 6M1147 697q6 0 9-4-1-4-7-5c-4-3-8 3-8 7q2 2 6 2M127 866l2-1-2-4q-6-1-4 4zM861 666l2-1q2-2 0-4h-3c-3 0-3 5 0 5M976 440q4-3 1-7l-3-6q-2-4-5-4c-5 3-1 9 1 12q1 5 6 5M825 574q3-1 3-4l-4-2q-2 2-2 3zM514 864q9-2 17-8 5-2 6-7 2-4 0-7v-11q2-4 1-7c-7-17 3-19-1-27q-5-11-17-11-6 3-11 2l-4-1h-13q-7 1-12 8-3 5-2 9l10 21 5 18 1 8 2 4 7 4 6 4zM668 881q11-3 10-11 1-2-2-4-5-1-6 5l-3 5q-3 3 1 5M1086 457c9-1 3-7-3-7l-1 2q-1 4 4 5M404 894q7-8 15-14c5-3 9-2 10-9 0-8 4-8 9-12q2-2 1-5c-2-10-14-18-24-16-5 0-2 5-4 8q-2 2-6 3-8 1-14 7-6 9-9 19l-4 12v3q2 3 6 4M1057 673q6-1 10-5v-5q-2-4-5-5-5 0-5 5l-3 6q-1 4 3 4M1245 441q-3 1-4 4-3 7-6 12c-6 6-13 9-15 17q-4 10 7 11l17 4M328 886c4-2 2-5 2-8l-1-2q-6-4-9 3l1 3q2 4 7 4" class="g"/><path d="M398 893q5 0 8-5l6-7 3-4q6-3 9-6 2-6 6-11 3-3 4-6-1-6-7-7-4-1-7 2l-3 1-13 3q-3 1-6 4l-7 9-5 11q-1 9 5 14 3 3 7 2M699 848l9-6q3-2 2-5 0-4-4-9l-6-1-9 7q-3 1-4 4c-1 6 6 9 11 9M1181 386l3-2q3-4 0-7-3-5-10-6-2-1-3 1-1 5-1 10 4 4 10 4M735 862z" class="g"/><path d="M737 860q3-6-2-9-6-1-9 4 0 5 6 6" class="f"/><path d="M733 862h1M865 645c5-2 13-4 15-9l-1-5q-4-7-13-9-7-1-8 7c-1 6 0 15 7 16" class="g"/><path d="m400 889 5-4 4-5 3-5q2-3 8-5c3-2 5-10 2-12l-8-1q-3 1-4 4l-2 4-7 4-3 4-4 3c-6 6-1 11 5 13" class="d"/><path d="M868 639c21-3-4-23-5-7l1 5q1 3 4 2M1122 499q4-3 4-7v-4c-2-3-9-4-13-3q-3 2-1 6 2 7 9 7" class="g"/><path d="M1209 735q4-1 6-3 1-2-1-5-2-5-6-8-6-3-10 2-2 2-2 5 5 7 13 9" class="d"/><path d="M1249 306q-9-10-21-17l-3-1q-7 4-11 10c-7 6-21 10-18 20q4 10 14 12l15 3q8 7 11 19l7 10 6 5" class="g"/><path d="M1250 329q-3-12-8-23c-4-6-11-18-20-13l-6 7q-8 4-14 9-3 2-3 5-2 6 3 11 8 4 15 4h7q5 3 7 7 8 15 17 26" class="f"/><path d="M983 481h1" class="g"/><path d="M986 481c4-2 9-5 4-9q-6-5-13-2c-4 3 0 8 4 11" class="f"/><path d="M982 481zM832 693c8-3 23 4 29-3 2-3 0-8 3-12l11-8 3-6c-1-7-6-12 0-18 2-3 7-4 7-8q1-4-1-7-5-9-15-13l-3-1q-4-2-8-3-4 2-5 5l-4 5q-2 3-1 8l1 10c0 6-7 9-10 12l-2 4-5 10q-6 4-10 9c-1 6 4 14 10 16M817 632q4-2 3-7l-1-2q-6 1-10 5-1 2 2 2zM1250 345q-4-4-4-12v-5q-3-13-8-22l-3-3c-3-4-6-9-10-7l-3 1c-6 6-15 8-19 16-4 11 4 14 14 12l6 1 12 8c5 5 3 13 7 18l7 3M112 883c-4-2-11-4-10-11q1-9-7-11-7-1-6 5c2 6 9 10 11 17" class="g"/><path d="m187 888-3-3-2-4c-4-2-10-2-11-8-1-8-2-17-12-15-8 0-14 10-9 18 3 3 10 3 13 6l2 4" class="f"/><path d="M1126 335q5 0 5-5c0-3-6-7-10-6q-4 3-3 7l3 2z" class="g"/><path d="m1125 889 12-4q2-2 2-5l-4-20c-3-5-9-10-8-16q-1-14-14-19l-8-1-2-3q-5-8-14-10-5 0-8 3l-5 5-9 3c-13 7-15 23-11 36q3 7 9 12l1 7q2 5 5 3c9-6 13-4 22 0q10 7 21 10" class="d"/><path d="m936 644 9-1q8-5 15-11 8-9 15-19 2-5 6-6 7-1 12-7c3-9-5-16-14-15h-5q-6 0-10-5-6-7-14-8l-14 1h-15c-9 0-3 10-11 16q-9 3-4 11l6 18c0 6-2 14 2 18q10 8 22 8M514 842l1-1" class="g"/><path d="m517 840 1-6v-23q-1-8-9-9h-8q-5 0-7 4c-2 7 4 13 9 17 9 10-1 17 9 18" class="f"/><path d="M513 842zM834 699h1" class="g"/><path d="m837 698 14-1q8 0 13-5c3-4 1-10 5-14l10-9q4-2 2-7c-2-4-5-11-1-15l6-4q3-4 1-9-3-8-10-14l-13-7q-7-5-12 1l-6 10q-2 3-1 6 2 10-4 19l-5 4q-3 4-5 10-3 5-8 8-6 7-3 15 2 10 12 12" class="f"/><path d="M833 699zM440 801l1-1" class="g"/><path d="M443 800q5-3 7-9 5-6 2-13-2-5-6-6-3-2-7 1c-2 7 0 9-8 13-3 2-7 7-4 11q5 3 11 3" class="f"/><path d="M439 800zM870 634q3 0 2-2t-3-1v2zM1236 326q3-1 1-4l-1-4q-2-7-7-12-2-3-6-2-8 2-10 9c-2 8 9 7 14 9q5 3 9 4M1104 309h1" class="g"/><path d="M1107 308q8-5 1-12-2-3-5-3l-6-2q-9 3-5 12 4 5 10 6" class="h"/><path d="M1103 309h1M914 712z" class="g"/><path d="M916 711q3-2 3-6l-1-7q-3-5-8-3-2 3-2 6-1 7 3 11" class="h"/><path d="M912 712h1M1104 306q4-1 4-6-2-5-9-4c-5 1-4 7 0 9zM509 847h8q4 0 6-3 3-5 0-10v-10q2-6 0-12c0-8-7-12-13-13l-11-2c-10 0-11 12-6 19l7 9q3 3 3 7c-1 5-1 14 6 15M1227 319q5-2 3-7-1-5-5-6-5 0-6 3-3 4 1 7 3 2 7 3M59 842l1-1" class="g"/><path d="M62 841q7 0 7-3-4-3-9-4c-4-2-2-10-3-14q0-6-4-4-5 4-11 5l-12 3v2q6 4 13 6l10 5 2 3 2 1" class="f"/><path d="M58 841h1" class="g"/><path d="m831 707 15-3q3-2 7-3c7-2 14-2 16-11q-1-7 3-12c4-5 16-8 14-16q-3-4-5-10 3-5 8-8l1-7q-2-8-9-16-7-6-16-9l-8-4h-5l-2 4-7 11-1 6q3 10-5 19l-13 16q-5 4-8 9-2 11-3 23 1 5 7 5 4 3 6 5z" class="d"/><path d="M971 726q6-1 5-5 1-3-1-3-5 0-7 4t2 4M935 636z" class="g"/><path d="m938 636 3-2 5-5q6-2 9-5l6-4q6-5 9-11l2-14q1-3-2-3c-8-4-11-13-19-15-7-1-13 3-19 4l-9 3-5 7-1 4q-1 7-1 15l2 9v6q0 5 4 8l11 3" class="f"/><path d="M934 636zM1189 288c5-3 8-13 2-14-9-2-7 10-2 14M773 836q3 0 5-3l-2-6-3-2q-5-2-8-6c-3-2-4 3-4 5q0 4 4 8 2 4 8 4M934 633l4-1 4-4 16-10q8-4 9-12 1-3-1-6c0-9-4-12-11-18q-3-3-8-2-4 1-7 4l-7 2c-11 3-14 15-11 23q0 7-1 13l3 6zM1109 878z" class="g"/><path d="M1112 878q6-1 11-3 5-4 4-10-4-4-12-7-5-4-8-9c-1-4 2-9-2-11l-14-8q-2-2-5-3l-3 2-5 6-4 5q-4 5-3 11 4 10 12 13l7 4q7 7 16 10" class="f"/><path d="M1107 878h1M738 829q3-1 4-3c2-3-2-4-4-4l-4 4 2 3zM1248 238c-6-1-12-4-16 2q-5 3-9 8-3 5 0 10c5 6 18 7 26 7M875 846q5-1 6-7 2-6-2-12-2-2-3-5 0-5 2-10-4-16-21-15-4 1-7 5-4 4-10 1-6-4-4-9 0-6-5-9c-7-4-5-6-4-13q1-4-5-4-5 1-11 1c-10-2-8-13-17-11-6 2-1 6-1 10l-2 9q-1 5 1 9l5 4q9 4 10 13 2 2 6 3 6 0 12 2 8 4 16 6l9 3 3 1 4-2 3-1q4 3 3 8c-2 4-8 6-9 10q1 7 7 9l7 2zM1188 256q6-2 7-7-1-5-7-5c-4 0-11 1-9 6q3 5 9 6M1146 251q7-1 10-4 4-7 4-16l1-7q-2-3-8-1-7 4-12 13-3 4-4 8 2 7 9 7M324 826l5-1c6-2 5-10 1-13-4-2-10-1-10 4v3c0 4-3 6 4 7" class="g"/><path d="m1147 247 8-4q3-6 1-12-2-4-5-1-7 5-9 12 0 4 5 5M933 629q4-2 5-4l6-2 12-7q5-3 7-8l1-4-1-7-4-8-8-5-5 2-6 2q-7 0-12 7-2 3-3 7l2 8-2 8q0 9 8 11M1113 875c5-1 15-5 7-11l-5-3q-6-4-10-9-3-3-2-7c0-7-12-11-18-9q-3 1-4 3l-4 6q-1 6 3 10 2 3 6 5l7 4 6 6q7 5 13 4M740 602q7-1 7-7 1-3-2-3-7 0-10 4-2 3 2 5zM1135 538q6-5 0-8h-1q-4 4 0 8M653 815l9-4q6 0 10-4 2-3 2-8 2-5 7-8l4-7 3-4c-1-3-6 0-8-1q-5-2-4-6l4-5c4-3 2-8-2-5q-8 4-15 1h-13l-3 1q-4 3-7 7-4 6-5 11c-1 3 2 6 1 9l-5 5-4 8v4q4 3 10 2l7 2zM469 791h1" class="g"/><path d="m472 790 2-3 3-5 4-3q4-1 7-3l2-4 6-4q4-3 9-4 3 1 8-1c8-6-5-12-11-13l-12 1q-5-1-8-3t-5-2l-3 3-3 4q-4 5-6 12 0 5 1 9l1 5q-1 6 1 11" class="f"/><path d="M468 791zM1135 543q6-1 9-7 3-4-1-8l-6-8q-4-4-2-9l3-9q8-6 9-13v-11l1-13v-3l-4-6q-2-5-6-8c-4-2-11-2-11-8l2-6 2-6q4-8 0-15-3-4-10 0l-8 4c-11 4-16-7-20-3l-10 9c-7 6 1 15-13 22q-14 6-30 7-6 0-7 5-2 6-8 7t-12-3q-2-5-6-8t-8-1l1 4v8l4 5q2 4 5 7 15 8 29 9c8 2 7 6 9 12q1 4 6 2l9-4 4-6q4-7 13-10 7-4 13 3l4 10 11 10 3 6q1 5 3 8 5 3 11 4 4 5 4 12-2 8 6 11M600 895q-3-7-8-15-3-9-13-8-3 0-5-3c-3-7-9-12-15-7q-8 9-1 19 2 4 7 5c3 0 6-5 9-5 7 1 9 8 10 13M1172 553c6-3 5-8 5-13q1-2 3-2c5-1 5-9 0-8l-8 5-6 3-2 2q-2 4 1 6zM1165 238l7-4q5-2 5-7l-5-12c-1-5-7-5-10-2-4 4 1 4 3 6 6 6-6 12-1 19" class="g"/><path d="M732 879c12-2 18-1 20-15q0-8-1-16v-6q-4-4-9-3l-11-4-9-5q-3-2-3 1 0 4 1 7-1 6-7 10-4 7 0 15l1 5 2 2q6 6 16 9" class="d"/><path d="M88 838q7-5 3-11l-5-3-11-8q-5-4-11 0-4 5-3 11 4 7 12 7zM1196 227l7-2q4-1 4-3c-1-7-5-17-13-17q-5 0-9 4c-1 4 3 8 4 12q1 5 7 6" class="g"/><path d="M1198 222c8-1 3-14-4-14q-8 1-4 8 2 5 7 6M722 708q5-2 0-5-5-2-5 3zM414 780q3-2 2-6-2-4-6-4-5 1-5 6 3 4 8 4M70 830l1-1" class="g"/><path d="M73 829q5-3 3-7l-6-3c-5 0-8 7-4 9l2 1" class="h"/><path d="M69 829zM882 529c1 0 9-4 7-5q-4-1-9 0v2q-2 3 1 3" class="g"/><path d="M934 621h8l11-7q7-8 6-17l-3-5-6-1-11 1q-6 2-8 9v5l-1 10q0 5 3 5" class="d"/><path d="M195 891q-3-6-8-10l-4-4q-5-3-8-9 0-4-2-7c-6-6-17-9-23-3-4 4-10 13-6 19s15 3 17 10M134 836h1" class="g"/><path d="m137 835 7-2c6-5-6-10-10-10q-6-2-7 4-2 7 5 9" class="e"/><path d="M133 836h1" class="g"/><path d="m653 809 10-2q4-1 6-4t3-8l5-5q3-3 2-6l-6-3-3-4-3-5-8 1c-6-2-10-8-15-1-3 4-8 9-6 14l2 8v7q3 8 12 9" class="d"/><path d="M501 880q5-4-1-7h-4l-1 4q2 3 5 3M265 850c7-2 4-13-3-9q-4 1-4 6 2 4 6 3M135 833c3 0 8-1 6-5q-2-3-6-2l-3 1-1 5zM1246 145q-5-4-12-7-2-4-4-9-3-3-7-1c-4 3-2 9-4 13q0 5-5 7-8 2-12 5c-6 15 10 30 22 38q11 3 22 5" class="g"/><path d="M1246 149q-8-6-18-4l-12 6-8 3q-3 1-4 4v7c7 17 25 28 43 29M1133 177h6l7-3q4-4-1-10-5-4-12-3-8 0-10 7c-1 5 6 9 10 9" class="g"/><path d="M1246 154c-11-10-26 0-39 4-6 6 9 19 13 23q13 9 27 10" class="g"/><path d="m1247 159-6-6q-5 0-9 2-2 2-5 3-6 1-12-1c-5 0-7 6-4 9l11 14 4 2h13q5 3 8 6M1133 173q5-2 3-5 1-1-3-3c-5 0-5 7 0 8M917 545q7-2 8-8c1-3 4-12-3-10l-6 1q-3 0-4 3c1 5-1 13 5 14M940 618c5-1 9-7 3-9q-6-1-9 4 1 5 6 5M955 553l4-1q4-2 4-6c0-2-3-4-1-6q4-3 5-7-3-5-9-2l-2 4-5 6q-9 9 4 12M658 805q7-1 10-7 3-5 1-10l-5-5q-2-4-8-6l-7-2q-6 2-8 7 0 5 2 9c3 6 6 14 14 14M698 714c6-2 1-10-4-9q-3 1-3 3 1 5 6 6M1008 754z" class="g"/><path d="m1011 754 6-3 4-2c2-5-1-11 0-16v-2c-2-7-14-17-18-7q-5 7-8 15v8l4 3 7 3" class="f"/><path d="M1007 754zM1113 581c3-1 8-2 7-6q0-2-2-3h-3q-6 4-2 9M1039 894q1-9-4-14-8-5-16-2-4 2-6 5t-5 3l-24 3q-8-1-11 6M705 807q5-1 6-6-3-5-8-5c-4 0-4 6-3 8q1 2 5 2M1162 591l8-2v-4l-5-2-5 2-3 3q0 3 4 3M1044 766l3-2v-5q-1-3-6-2-3 2-2 5 1 4 5 4M953 834c7-3 0-12-6-11q-6 2-5 8l3 2zM658 796q5-2 2-5-2-3-6-4c-7 2-1 9 4 9M562 711q8-2 2-8l-9-6-3-6q-3-2-7 1-2 2 0 6 4 7 11 11z" class="g"/><path d="m564 714 7-1c4-3-3-10-5-12q-6-4-7-11c2-9-8-7-13-5q-5 3-7 9l2 7q8 12 23 13M666 733q6-1 6-6l-8-10q-1-2-4-3-5 2-4 6l2 4c2 4 2 9 8 9" class="g"/><path d="m1199 803 9-2 6-2q6-4 5-10-4-3-10-4-7-1-9 4v7q-3 3-4 5t3 2" class="d"/><path d="M793 596q7-1 5-7-2-5-8-4c-6 3-2 10 3 11M599 784q7-1 6-9-1-2-3-1l-3 4-3 3q-1 4 3 3M382 836q7-3 10-9 0-5-4-5c-5 1-15 12-7 14M662 738l11-1q7-4 4-10l-5-7q-4-3-5-7v-5q-2-4-6 0l-7 4q-4 5-2 10 3 6 4 12 2 4 6 4M321 829z" class="g"/><path d="M324 829c6 0 13-1 13-10q0-6-7-9-6-4-11-1c-5 4-7 17-1 20" class="f"/><path d="M319 829h1M748 799q6-1 2-6-2-6-5-12-2-4-3-9-3-6-10-7c-8-2-16-9-24-5-3 1-7 7-5 10l4 2 5 4c5 3 6 4 12 4l5 2 10 11 2 2q3 4 6 4M1230 643l5-1 2-1-3-4-2-8q-3-7-11-4-2 3-2 8c-3 9 4 9 10 10M147 821z" class="g"/><path d="M150 821q4-1 7-3 0-5-5-6-6-2-10 1-3 5 3 7" class="f"/><path d="M146 821zM1007 580c3-1 8-4 5-8-2-3-8-7-11-3q-3 2-1 6 3 4 7 5M743 751l8-3 6 1q7 1 10-4 3-2 0-5-2-2-3-5l-4-8-5-4-7-6q-1-4-4-6h-6q-5 2-6 6c-1 3 3 6 2 10l-2 4q-1 4 1 9 2 9 9 11M321 832c6-2 14 0 17-6q4-10-4-17-6-3-13-3h-4q-7 5-7 15c0 9 3 10 11 11M890 772h1" class="g"/><path d="M893 772q4-1 4-4 0-6-2-11-4-5-10-4c-4 2-10 11-7 15q4 3 10 4" class="f"/><path d="M889 772h1M1006 788l5-2q2-3-3-5c-6-3-8 5-2 7" class="g"/><path d="M741 756q4-2 8-3h7q6 1 9-2l7-4q5-5-1-9-5-5-7-9-6-8-11-13-3-5-7-9-8 0-14 3-4 1-4 4c0 14-3 29 8 40z" class="d"/><path d="m887 776 12-1q7-3 5-10l-5-11q-6-5-12-5-7 0-14 3l-6 1q-1 2 2 5v4q-2 10 8 12zM534 732q6-2 5-8-2-3-7-3-5 2-5 6 2 5 7 5M1124 808q4 0 5-3 0-7-7-8-3 0-4 3v3q1 4 6 5M942 603l6-2h3v-2l-1-1q-6-1-10 0-3 1-2 4z" class="g"/><path d="M538 735q5-3 4-9 1-9-7-9c-6 0-13 5-11 12q4 7 13 6M1032 798q6-1 11-4 4-1 2-6-4-4-9-3l-8 1c-8 3-3 12 4 12" class="g"/><path d="M514 859c7-2 19-4 19-13l-1-12 2-6v-6l-3-12 1-7q0-4-4-9l-3-3q-3-2-8 1-5 1-11-1-8-3-16-1-5 3-6 8-3 3-2 7l3 6 3 9 5 8 3 15q2 13 17 16" class="d"/><path d="m1057 617 10-4q6 0 8-4v-7q-3-11-16-18l-6-1-3 2-1 6q-2 6-3 14 0 4 4 9 2 2 7 3" class="g"/><path d="M1056 612q6-1 11-4 4-1 5-5-1-8-10-12-6-2-8 5l-3 4c-3 4 0 11 5 12M193 820c6-1 9-7 3-10q-3-2-7-1c-5 4-2 11 4 11M946 685q5 0 2-4l-7-4c-2-2-1-9-4-9s-2 6-2 8q1 2 4 3l2 2 3 4zM800 780l4-1v-4l-4-1q-2 0-2 3-1 1 2 3M937 852z" class="g"/><path d="M940 851c4-1 11-3 10-8-2-4-7-2-10-3l-4-2c-4-2-11-2-13 1q-2 3-1 5 4 6 13 7" class="f"/></g></svg>