<?xml version="1.0" encoding="UTF-8"?><svg id="b" xmlns="http://www.w3.org/2000/svg" width="700" height="700" viewBox="0 0 700 700"><defs><style>.d{fill:#99f;}.e{fill:#00005b;}</style></defs><g id="c"><path class="e" d="M0,253.33C0,164.66,0,120.32,17.26,86.45c15.18-29.79,39.4-54.01,69.19-69.19C120.32,0,164.66,0,253.33,0h193.33c88.68,0,133.01,0,166.88,17.26,29.79,15.18,54.01,39.4,69.19,69.19,17.26,33.87,17.26,78.21,17.26,166.88v193.33c0,88.68,0,133.01-17.26,166.88-15.18,29.79-39.4,54.01-69.19,69.19-33.87,17.26-78.21,17.26-166.88,17.26h-193.33c-88.67,0-133.01,0-166.88-17.26-29.79-15.18-54.01-39.4-69.19-69.19C0,579.68,0,535.34,0,446.67v-193.33Z"/><path class="d" d="M294.73,439.1h-108.47l-22.07,70.45c-.61,2.61-3.02,4.46-5.64,4.33h-54.94c-3.13,0-4.23-1.77-3.29-5.3l93.92-276.27c.94-2.89,1.88-5.71,2.82-9.41,1.23-6.43,1.86-12.96,1.88-19.51-.27-1.94,1.4-3.65,3.29-3.37h74.66c2.19,0,3.44.8,3.75,2.41l106.6,306.63c.94,3.21,0,4.82-2.82,4.82h-61.05c-2.14.24-4.18-1.22-4.69-3.37l-23.95-71.41ZM203.17,379.69h74.2c-12.19-41.66-25.95-82.76-37.1-124.74-12.64,43.55-24.3,83.93-37.1,124.74Z"/><path class="d" d="M466.52,411.89c4.32,35.77,34.36,52.83,67.62,52.1,18.76-.37,38.8-3.28,56.33-10.37,1.56-1.28,2.35-.48,2.35,2.41v45.75c.15,2.38-.85,4.51-2.82,5.78-21.79,9.89-46.79,12.88-70.42,12.5-70.45,0-118.82-49.63-118.8-121.85-.19-68.43,44.21-126.17,113.17-126.17,58.45-1.51,98.92,45.28,99.08,103.54,0,10.61-.59,21.26-1.88,31.79-.25,2.17-2.1,3.85-4.23,3.85-46.68,0-93.59.68-140.4.68ZM466.52,368.02c26.02,0,52.18.92,78.18-.24,3.91-.4,6.81-1.14,6.81-5.21-.54-21.59-18.77-39.36-39.91-38.53-25.55-1.59-41.9,19.98-45.08,43.97Z"/></g></svg>