<?xml version="1.0" encoding="UTF-8"?><svg id="b" xmlns="http://www.w3.org/2000/svg" width="505" height="433.38" xmlns:xlink="http://www.w3.org/1999/xlink" viewBox="0 0 505 433.38"><defs><style>.f{fill:none;}.g{fill:#00c;}.h{fill:#ff0101;}.h,.i,.j{fill-rule:evenodd;}.i{fill:#ff7901;}.j{fill:#f3e517;}.k{clip-path:url(#e);}.l{clip-path:url(#d);}</style><clipPath id="d"><polygon class="f" points="118.36 327.96 126.25 335.85 138.09 375.3 142.03 327.96 153.87 387.14 153.87 312.18 161.76 331.9 173.59 387.14 173.59 312.18 181.48 320.07 193.32 387.14 205.16 296.4 231.26 398.66 232.77 335.85 240.66 312.18 248.55 410.81 272.23 312.18 280.12 395.03 299.84 308.23 319.57 402.92 323.52 331.9 335.35 308.23 339.3 398.98 359.02 312.18 370.86 351.63 374.8 316.12 386.64 339.79 386.64 264.83 374.8 296.4 370.86 229.32 362.97 280.61 355.08 264.83 351.13 209.6 331.41 284.56 327.46 268.78 315.62 150.42 303.79 253 295.9 284.56 280.12 178.03 264.34 268.78 256.45 292.45 252.5 129.49 228.83 312.18 205.16 146.47 193.32 288.51 185.43 272.72 177.54 178.03 173.59 272.72 161.76 300.34 153.87 205.65 145.98 280.61 134.14 260.89 134.14 316.12 118.36 256.94 118.36 327.96"/></clipPath><clipPath id="e"><path class="f" d="M252.5,0c-52.33,0-100.05,16.34-135.25,43.77-35.2,27.43-58.07,66.68-58.07,110.35v15.78C24.23,187.61,0,234.06,0,288.5c0,69.69,39.65,126.25,90.74,126.25V154.12c0-32.7,16.93-62.79,45.99-85.44,29.07-22.65,70.1-37.11,115.77-37.11s86.71,14.46,115.77,37.11c29.06,22.65,45.99,52.74,45.99,85.44v260.64c51.1,0,90.74-56.56,90.74-126.25,0-54.45-24.23-100.9-59.18-118.61v-15.78c0-43.67-22.87-82.92-58.07-110.35C352.55,16.34,304.83,0,252.5,0ZM102.58,166.2v248.56c7.89,0,15.78-3.95,19.73-11.84v-228.83c-3.95-3.95-11.84-7.89-19.73-7.89ZM402.42,166.2c-7.89,0-15.78,3.95-19.73,7.89v228.83c3.95,7.89,11.84,11.84,19.73,11.84v-248.56Z"/></clipPath></defs><g id="c"><path class="j" d="M241.28,123.79c-9.05,22.65-17.77,60.15-28.3,17.02-7.9-30.63-24.77,19.19-37.04,27.74-24.75,18.81-38.45,45.32-49.44,73.73-29.11-24.75-18.19,14.97-19.97,34.4,1.59,29.12-3.16,60.96,2.34,88.4,23.1,20.13,39.81,51.9,74.18,51.49,23.51,8.17,20.57-27.38,41.89,2.12,19.62,26.89,31.73,11.17,44.54-2.06,18.71,28.65,24.45-34.27,40.23-6.05,24.4,9.5,46.27,14.01,50.28-18.19,5.01-25.43,48.74-25.95,38.49-56.52-1.43-31.73,2.84-65.71-2.1-96.05-16.56-12.92-29.34-42.77-48.21-45.37-23.35,11.33-14.35-38.63-23.96-53.33-3.14-38.61-11.41-21.15-20.4,5.32-4.98,38.12-25.89,19.95-36.57-5-9.5-7.99-20.33-50.2-25.96-17.64h0Z"/><g class="l"><path class="i" d="M110.47,126.75h284.06v288.01H110.47V126.75Z"/><path class="h" d="M114.41,272.72l31.56,19.73,11.84-35.51,19.73,23.67,23.67-39.45,7.89,47.34,7.89-31.56,11.84,23.67,3.95-23.67s11.84,31.56,11.84,27.62,15.78-59.18,15.78-59.18l15.78,51.29,23.67-47.34,11.84,51.29,19.73-35.51,11.84,35.51,19.73-19.73,23.67,23.67v31.56l-15.78,11.84-23.67-7.89-15.78-7.89-3.95,39.45-7.89-39.45-15.78,35.51-23.67-35.51-7.89,35.51-15.78-23.67-19.73,51.29-11.84-59.18-23.67,11.84-15.78-23.67-7.89,39.45-15.78-19.73-15.78,19.73-7.89-11.84-23.67,3.95v-63.13Z"/></g><g class="k"><path class="g" d="M252.5,0C200.17,0,152.45,16.34,117.25,43.77c-35.2,27.43-58.07,66.68-58.07,110.35v15.78C24.23,187.61,0,234.06,0,288.5c0,69.69,39.65,126.25,90.74,126.25V154.12c0-32.7,16.93-62.79,45.99-85.44,29.07-22.65,70.1-37.11,115.77-37.11s86.71,14.46,115.77,37.11c29.06,22.65,45.99,52.74,45.99,85.44v260.64c51.1,0,90.74-56.56,90.74-126.25,0-54.45-24.23-100.9-59.18-118.61v-15.78c0-43.67-22.87-82.92-58.07-110.35C352.55,16.34,304.83,0,252.5,0Z"/><path class="g" d="M102.58,166.2v248.56c7.89,0,15.78-3.95,19.73-11.84v-228.83c-3.95-3.95-11.84-7.89-19.73-7.89ZM402.42,166.2c-7.89,0-15.78,3.95-19.73,7.89v228.83c3.95,7.89,11.84,11.84,19.73,11.84v-248.56Z"/></g></g></svg>