
<svg id="b" xmlns="http://www.w3.org/2000/svg" width="894.38" height="894.38"
    viewBox="0 0 894.38 894.38">
    <defs>
        <style>
            .d {
                opacity: .85;
            }
        </style>
    </defs>
    <g id="c">
        <path class="d"
            d="M741.84,0H152.54C51.01,0,0,50.52,0,150.6v593.66c0,100.08,51.01,150.12,152.54,150.12h589.29c102.02,0,152.55-50.04,152.55-150.12V150.6C894.38,50.52,843.86,0,741.84,0ZM814.38,744.27c0,26.85-5.03,46.6-14.17,55.61-9.49,9.35-30.22,14.51-58.37,14.51H152.54c-28.01,0-48.7-5.17-58.26-14.57-12.43-12.22-14.29-40.05-14.29-55.54V150.6c0-16.16,1.79-29.65,5.33-40.1,2.34-6.92,5.32-12.1,9.09-15.83,9.58-9.47,30.22-14.68,58.12-14.68h589.29c28.04,0,48.72,5.19,58.24,14.61,9.23,9.14,14.31,29.02,14.31,55.99v593.66Z" />
        <path class="d"
            d="M661.68,406.14l-289.54.49-66.34,2.47,30.39-28.7,81.13-76.27c8.26-6.8,12.15-17.49,12.15-27.21,0-20.89-15.06-36.44-35.46-36.44-10.69,0-18.95,3.89-26.23,11.66l-159.35,165.18c-10.2,10.2-13.6,18.46-13.6,29.15s3.4,18.95,13.6,29.15l159.35,165.18c7.29,7.77,15.55,11.66,26.23,11.66,20.4,0,35.46-15.06,35.46-35.95,0-9.72-3.89-20.89-12.15-27.69l-81.13-76.27-30.39-28.7,66.34,2.47h289.54c21.38,0,38.87-17.98,38.87-39.84s-17.49-40.32-38.87-40.32Z" />
    </g>
</svg>