<?xml version="1.0" encoding="UTF-8"?><svg id="b" xmlns="http://www.w3.org/2000/svg" width="499.83" height="406.03" viewBox="0 0 499.83 406.03"><defs><style>.d{fill:#fff;}.e{fill:#ea7600;}.f{fill:#265787;}</style></defs><g id="c"><path class="d" d="M196.49,225.35c1.82-32.49,17.73-61.11,41.73-81.4,23.54-19.92,55.22-32.1,89.78-32.1s66.21,12.15,89.77,32.15c24,20.29,39.89,48.91,41.73,81.37,1.82,33.38-11.6,64.39-35.14,87.37-24,23.38-58.13,38.06-96.36,38.06s-72.43-14.68-96.41-38.06c-23.59-23.03-36.93-54.04-35.1-87.39Z"/><path class="f" d="M260.53,228.27c.93-16.67,9.1-31.36,21.41-41.77,26.78-21.96,65.35-21.96,92.13,0,12.3,10.41,20.47,25.1,21.41,41.75.93,17.13-6,33-18,44.83-12.31,12-29.83,19.53-49.44,19.53s-37.16-7.53-49.47-19.53c-12.12-11.79-18.98-27.7-18.04-44.81Z"/><path class="e" d="M153.08,262c.11,6.52,2.19,19.2,5.31,29.1,6.74,21.33,18.06,40.92,33.16,57.42,16.19,17.81,35.95,32.01,58,41.67,48.62,21.22,103.91,21.11,152.45-.31,22.05-9.76,41.8-24.02,58-41.88,15.08-16.55,26.39-36.18,33.15-57.53,3.28-10.43,5.37-21.21,6.24-32.11.83-10.64.49-21.33-1-31.9-2.93-20.56-10.13-40.27-21.15-57.87-10.22-16.37-23.28-30.77-38.58-42.53h0L282.5,6.2c-.14-.11-.26-.22-.41-.32-10.24-7.86-27.47-7.83-38.73,0-11.26,7.83-12.69,21.14-2.56,29.46h0l65.11,53-198.46.21h-.27c-16.44.06-32.18,10.82-35.33,24.45-3.21,13.86,7.93,25.36,25,25.42v.06l100.6-.19L17.9,276l-.69.51c-16.93,13.01-22.41,34.57-11.74,48.22,10.82,13.87,33.84,13.9,51,.08l98-80.18c-.79,5.76-1.26,11.56-1.39,17.37ZM404.82,298.2c-20.18,20.56-48.44,32.22-79,32.28s-58.89-11.5-79.07-32c-9.54-9.58-16.9-21.1-21.58-33.78-4.41-12.06-6.12-24.95-5-37.74,1.07-12.49,4.76-24.61,10.83-35.57,6.1-10.97,14.25-20.66,24-28.55,19.62-16,44.6-24.65,70.73-24.68s51.12,8.54,70.76,24.48c9.75,7.86,17.9,17.52,24,28.46,6.07,10.95,9.77,23.05,10.86,35.52,1.11,12.79-.6,25.66-5,37.72-4.67,12.7-12.01,24.25-21.53,33.86Z"/></g></svg>