<?xml version="1.0" encoding="UTF-8"?><svg id="b" xmlns="http://www.w3.org/2000/svg" width="346" height="512.36" viewBox="0 0 346 512.36"><defs><style>.d{fill:#24cb71;}.e{fill:#874fff;}.f{fill:#00b6ff;}.g{fill:#ff7237;}.h{fill:#ff3737;}</style></defs><g id="c" image-rendering="optimizeQuality" shape-rendering="geometricPrecision" text-rendering="geometricPrecision"><path class="f" d="M172.53,246.9c0-42.04,34.09-76.11,76.12-76.11h11.01c.3,0,.63,0,.94,0,47.16,0,85.4,38.25,85.4,85.4s-38.24,85.39-85.4,85.39c-.31,0-.64-.01-.95-.01h-11c-42.03.01-76.12-34.08-76.12-76.11v-18.55Z"/><path class="d" d="M0,426.98c0-47.16,38.24-85.41,85.4-85.41h87.13v84.53c0,47.65-39.06,86.26-86.71,86.26S0,474.13,0,426.98Z"/><path class="g" d="M172.53,0v170.78h87.13c.3,0,.63,0,.94,0,47.16,0,85.4-38.25,85.4-85.4S307.76,0,260.6,0c-.31,0-.64,0-.95,0h-87.12Z"/><path class="h" d="M0,85.39c0,47.16,38.24,85.4,85.4,85.4h87.13V0h-87.14C38.24,0,0,38.24,0,85.39Z"/><path class="e" d="M0,256.18c0,47.16,38.24,85.4,85.4,85.4h87.13v-170.78h-87.14C38.24,170.8,0,209.03,0,256.18Z"/></g></svg>