<?xml version="1.0" encoding="UTF-8"?><svg id="b" xmlns="http://www.w3.org/2000/svg" width="700" height="700" viewBox="0 0 700 700"><defs><style>.d{fill:#001e36;}.e{fill:#31a8ff;}</style></defs><g id="c"><path class="d" d="M0,253.33C0,164.66,0,120.32,17.26,86.45c15.18-29.79,39.4-54.01,69.19-69.19C120.32,0,164.66,0,253.33,0h193.33c88.68,0,133.01,0,166.88,17.26,29.79,15.18,54.01,39.4,69.19,69.19,17.26,33.87,17.26,78.21,17.26,166.88v193.33c0,88.68,0,133.01-17.26,166.88-15.18,29.79-39.4,54.01-69.19,69.19-33.87,17.26-78.21,17.26-166.88,17.26h-193.33c-88.67,0-133.01,0-166.88-17.26-29.79-15.18-54.01-39.4-69.19-69.19C0,579.68,0,535.34,0,446.67v-193.33Z"/><path class="e" d="M367.63,515.5h-185.02c-3.13,0-4.7-1.77-4.7-5.3V204.37c-.35-2.49,1.8-4.69,4.23-4.33h57.29c1.88-.27,3.55,1.47,3.29,3.37v251.41h134.77c2.81,0,3.91,1.45,3.28,4.34l-8.45,52.01c-.07,2.62-2.22,4.31-4.69,4.34Z"/><path class="e" d="M414.63,275.8h51.18c2.82.02,5.36,2.02,6.1,4.82,3.75,8.54,4.21,18.84,4.23,28.07,8.78-10.48,19.36-19.22,31.23-25.77,12.73-7.38,27.15-11.13,41.77-10.84,2.43-.35,4.57,1.85,4.23,4.34v58.28c0,2.25-1.57,3.37-4.7,3.37-21.67-1.53-55.39,3.72-71.14,21.19v151.53c0,2.89-1.25,4.34-3.76,4.34h-54.92c-2.7.39-5.08-2.1-4.7-4.82v-164.53c0-22.05.47-44.76-2.82-66.6-.51-2.01,1.37-3.88,3.29-3.37Z"/></g></svg>