<?xml version="1.0" encoding="UTF-8"?><svg id="b" xmlns="http://www.w3.org/2000/svg" width="700" height="700" viewBox="0 0 700 700"><defs><style>.d{fill:#001e36;}.e{fill:#31a8ff;}</style></defs><g id="c"><path class="d" d="M0,253.33C0,164.66,0,120.32,17.26,86.45c15.18-29.79,39.4-54.01,69.19-69.19C120.32,0,164.66,0,253.33,0h193.33c88.68,0,133.01,0,166.88,17.26,29.79,15.18,54.01,39.4,69.19,69.19,17.26,33.87,17.26,78.21,17.26,166.88v193.33c0,88.68,0,133.01-17.26,166.88-15.18,29.79-39.4,54.01-69.19,69.19-33.87,17.26-78.21,17.26-166.88,17.26h-193.33c-88.67,0-133.01,0-166.88-17.26-29.79-15.18-54.01-39.4-69.19-69.19C0,579.68,0,535.34,0,446.67v-193.33Z"/><path class="e" d="M150,512.9V205.08c0-2.09.87-3.29,2.92-3.29,30.14,0,60.27-1.8,90.42-1.8,48.92,0,101.89,16.73,120.46,67.9,4.37,12.56,6.71,25.43,6.71,38.89,0,25.73-5.83,46.97-17.5,63.72-32.59,46.8-89.08,46.07-139.71,46.07v96.03c.39,2.84-2.03,4.19-4.38,4.19h-55.42c-2.33,0-3.5-1.2-3.5-3.89ZM213.58,259.53v100.51c20.08,1.47,41.09,1.63,60.37-4.78,21.3-6.15,32.96-24.58,32.96-46.67.59-18.82-9.67-36.88-27.13-43.68-19.06-7.92-45.64-8.4-66.21-5.38Z"/><path class="e" d="M552.42,340.18c-8.83-4.65-18.23-8.05-27.94-10.12-12.48-2.94-61.73-13.23-61.75,12.52.44,14.37,23.26,21.42,33.34,25.53,35.4,12.15,75.45,33.87,74.67,77.54,1.08,54.36-51.59,76.09-96.74,76.1-23.5.24-47.99-3.4-69.5-13.49-2.05-1.09-3.37-3.41-3.29-5.78v-52.02c-.23-2.08,2.01-3.91,3.76-2.41,21.08,12.74,46.05,18.93,70.44,19.26,10.76,0,32.09-1.04,31.93-16.86,0-15.17-25.52-22.15-35.69-26.01-14.74-5.26-28.73-12.56-41.56-21.67-17.93-12.79-29.19-33.3-28.88-55.87-.1-51.18,48.38-74.16,92.04-74.17,20.41-.17,42.33,1.34,61.33,9.63,2.73.8,3.3,3.68,3.29,6.26v48.65c.17,3.02-3.18,4.05-5.45,2.89Z"/></g></svg>