<?xml version="1.0" encoding="UTF-8"?><svg id="b" xmlns="http://www.w3.org/2000/svg" width="700" height="700" viewBox="0 0 700 700"><defs><style>.d{fill:#99f;}.e{fill:#00005b;}</style></defs><g id="c"><path class="e" d="M0,253.33C0,164.66,0,120.32,17.26,86.45c15.18-29.79,39.4-54.01,69.19-69.19C120.32,0,164.66,0,253.33,0h193.33c88.68,0,133.01,0,166.88,17.26,29.79,15.18,54.01,39.4,69.19,69.19,17.26,33.87,17.26,78.21,17.26,166.88v193.33c0,88.68,0,133.01-17.26,166.88-15.18,29.79-39.4,54.01-69.19,69.19-33.87,17.26-78.21,17.26-166.88,17.26h-193.33c-88.67,0-133.01,0-166.88-17.26-29.79-15.18-54.01-39.4-69.19-69.19C0,579.68,0,535.34,0,446.67v-193.33Z"/><path class="d" d="M150,494.89V180.2c0-2.14.88-3.36,2.93-3.36,30.23,0,60.45-1.83,90.69-1.83,49.06,0,102.2,17.1,120.82,69.42,4.39,12.84,6.73,25.99,6.73,39.76,0,26.3-5.85,48.01-17.55,65.14-32.68,47.84-89.34,47.1-140.12,47.1v98.17c.4,2.91-2.03,4.28-4.39,4.28h-55.58c-2.34,0-3.51-1.22-3.51-3.98ZM213.77,235.86v102.75c20.14,1.51,41.21,1.67,60.55-4.89,21.36-6.28,33.06-25.13,33.06-47.71.59-19.24-9.69-37.71-27.2-44.65-19.11-8.1-45.77-8.59-66.41-5.51Z"/><path class="d" d="M410.81,255.3h51.34c2.83.03,5.37,2.07,6.12,4.93,3.76,8.73,4.23,19.26,4.24,28.69,8.81-10.72,19.42-19.64,31.32-26.34,12.76-7.55,27.23-11.37,41.89-11.08,2.44-.36,4.59,1.89,4.24,4.43v59.58c0,2.3-1.58,3.45-4.71,3.45-21.73-1.57-55.56,3.8-71.35,21.67v154.91c0,2.96-1.26,4.43-3.77,4.43h-55.08c-2.71.4-5.09-2.14-4.71-4.93v-168.2c0-22.54.47-45.76-2.83-68.08-.51-2.06,1.37-3.96,3.3-3.45Z"/></g></svg>