<?xml version="1.0" encoding="UTF-8"?><svg id="b" xmlns="http://www.w3.org/2000/svg" width="62" height="62" viewBox="0 0 62 62"><defs><style>.d{fill:#2b2b2b;}.e{fill:#fb4996;}.f{fill:#ffb00e;}.g{fill:#6368d4;}.h{fill:#1f1f1f;}.i{fill:#3ed395;}.j{fill:#0a0a0a;}.k{fill:#e760d4;}</style></defs><g id="c"><rect class="d" width="62" height="62" rx="12" ry="12"/><path class="h" d="M5.02,13.56c0,.15-.02.29-.02.44v34c0,5.52,4.48,10,10,10h33c5.14,0,9.44-3.89,9.95-9-49.03-.02-52.66-30.87-52.93-35.44Z"/><path class="i" d="M34,24c.92-.22,1.79-.46,2.61-.73-2.78,1.8-5.8,3.22-8.96,4.22-1.39.46-2.73,1.05-4.01,1.76-.72.41-1.45.85-2,1.23-.01.01-.02.02-.03.02-1.27.73-2.48,1.57-3.61,2.5-5.44,4.53-6.77,13.99-6.97,15.72l-.03.28c0-13,7.15-21.27,23-25Z"/><path class="g" d="M50,7s1,10-4,14-13,5-13,5c-3.97.97-7.79,2.48-11.36,4.48.55-.38,1.28-.82,2-1.23,1.28-.71,2.62-1.3,4.01-1.76,3.16-1,6.18-2.42,8.96-4.22,14.28-4.64,13.39-16.27,13.39-16.27Z"/><path class="f" d="M33.75,34.36c-4.18,1.45-8.44,2.67-12.75,3.64-8,2-10,11-10,11l.03-.28c.71-4.15,2.8-7.95,5.95-10.75l.02.03s4-3,7-3c4.31,0,7.13,0,9.75-.64Z"/><path class="e" d="M33.75,34.36c-2.62.64-5.44.64-9.75.64-3,0-7,3-7,3l-.02-.03c2.05-1.79,4.43-3.14,7.02-3.97,12-4,16-2,24-10-2.8,5.05-8.43,8.2-14.25,10.36Z"/><path class="k" d="M51,11v3c-.19,3.52-1.22,6.95-3,10-8,8-12,6-24,10-2.59.83-4.97,2.18-7.02,3.97-3.15,2.8-5.24,6.6-5.95,10.75.2-1.73,1.53-11.19,6.97-15.72,1.13-.93,2.34-1.77,3.61-2.5.01,0,.02-.01.03-.02,3.57-2,7.39-3.51,11.36-4.48,0,0,8-1,13-5s4-14,4-14c.59,1.26.93,2.61,1,4Z"/><path class="j" d="M21,38c-2.87.75-5.39,2.49-7.1,4.91,1.23-.9,2.62-1.55,4.1-1.91,4.31-.97,8.57-2.19,12.75-3.64,4.97-1.85,9.8-4.42,12.85-8.28-2.98,2.27-6.31,4.06-9.85,5.28-4.18,1.45-8.44,2.67-12.75,3.64ZM8,52c.62-2.36,1.71-4.57,3.21-6.49.38-4.27,2.01-8.33,4.68-11.67-5.35,4.42-7.89,10.46-7.89,18.17ZM48,14.7v-.7c-.07-1.39-.41-2.74-1-4,.04,3.48-1.11,6.87-3.26,9.6,1.73-1.34,3.18-3,4.26-4.9Z"/></g></svg>